<svg width="56" height="22" viewBox="0 0 56 22" fill="none" xmlns="http://www.w3.org/2000/svg">
<path fill-rule="evenodd" clip-rule="evenodd" d="M49 5.3716C50.8565 5.3716 52.637 5.93789 53.9497 6.9459C55.2625 7.95391 56 9.32106 56 10.7466C56 12.1721 55.2625 13.5393 53.9497 14.5473C52.637 15.5553 50.8565 16.1216 49 16.1216C47.1435 16.1216 45.363 15.5553 44.0503 14.5473C42.7375 13.5393 42 12.1721 42 10.7466C42 9.32106 42.7375 7.95391 44.0503 6.9459C45.363 5.93789 47.1435 5.3716 49 5.3716ZM18.0565 0.587851C17.5649 0.96578 17.2888 1.47808 17.2888 2.01222C17.2888 2.54637 17.5649 3.05867 18.0565 3.4366L24.9515 8.73097L2.625 8.73097C1.92881 8.73097 1.26113 8.94333 0.768845 9.32134C0.276562 9.69934 0 10.212 0 10.7466C0 11.2812 0.276562 11.7939 0.768845 12.1719C1.26113 12.5499 1.92881 12.7622 2.625 12.7622L24.9515 12.7622L18.0565 18.0566C17.7986 18.2411 17.5917 18.4637 17.4483 18.7109C17.3048 18.9581 17.2276 19.2251 17.2214 19.4957C17.2152 19.7663 17.28 20.0352 17.4121 20.2861C17.5441 20.5371 17.7406 20.7651 17.9899 20.9565C18.2391 21.1479 18.536 21.2988 18.8629 21.4002C19.1898 21.5016 19.5399 21.5513 19.8923 21.5466C20.2448 21.5418 20.5924 21.4825 20.9144 21.3724C21.2364 21.2622 21.5262 21.1034 21.7665 20.9053L33.1415 12.171L35 10.7466L33.145 9.32222L21.77 0.587851C21.5262 0.400545 21.2368 0.251961 20.9182 0.150585C20.5996 0.0492096 20.2581 -0.00296974 19.9132 -0.00296974C19.5684 -0.00296974 19.2269 0.0492096 18.9083 0.150585C18.5897 0.251961 18.3003 0.400545 18.0565 0.587851Z" fill="white"/>
</svg>
