<svg width="72" height="72" viewBox="0 0 72 72" fill="none" xmlns="http://www.w3.org/2000/svg">
<path d="M59.4987 17H45.7904C43.7128 17 41.7204 17.8253 40.2514 19.2943C38.7823 20.7634 37.957 22.7558 37.957 24.8333V46.375C37.957 46.8944 37.7507 47.3925 37.3834 47.7598C37.0162 48.127 36.5181 48.3333 35.9987 48.3333C35.4793 48.3333 34.9812 48.127 34.6139 47.7598C34.2467 47.3925 34.0404 46.8944 34.0404 46.375V24.8333C34.0404 22.7558 33.2151 20.7634 31.746 19.2943C30.277 17.8253 28.2846 17 26.207 17H12.4987C11.4599 17 10.4637 17.4126 9.7292 18.1472C8.99468 18.8817 8.58203 19.8779 8.58203 20.9167V52.25C8.58203 53.2888 8.99468 54.285 9.7292 55.0195C10.4637 55.754 11.4599 56.1667 12.4987 56.1667H28.1654C29.7235 56.1667 31.2178 56.7856 32.3196 57.8874C33.4214 58.9892 34.0404 60.4835 34.0404 62.0417C34.0404 62.561 34.2467 63.0592 34.6139 63.4264C34.9812 63.7937 35.4793 64 35.9987 64C36.5181 64 37.0162 63.7937 37.3834 63.4264C37.7507 63.0592 37.957 62.561 37.957 62.0417C37.957 60.4835 38.576 58.9892 39.6778 57.8874C40.7796 56.7856 42.2739 56.1667 43.832 56.1667H59.4987C60.5375 56.1667 61.5337 55.754 62.2682 55.0195C63.0027 54.285 63.4154 53.2888 63.4154 52.25V20.9167C63.4154 19.8779 63.0027 18.8817 62.2682 18.1472C61.5337 17.4126 60.5375 17 59.4987 17ZM55.582 46.375H45.7904C45.271 46.375 44.7729 46.1687 44.4056 45.8014C44.0384 45.4342 43.832 44.936 43.832 44.4167C43.832 43.8973 44.0384 43.3992 44.4056 43.0319C44.7729 42.6647 45.271 42.4583 45.7904 42.4583H55.582C56.1014 42.4583 56.5995 42.6647 56.9668 43.0319C57.334 43.3992 57.5404 43.8973 57.5404 44.4167C57.5404 44.936 57.334 45.4342 56.9668 45.8014C56.5995 46.1687 56.1014 46.375 55.582 46.375ZM55.582 38.5417H45.7904C45.271 38.5417 44.7729 38.3353 44.4056 37.9681C44.0384 37.6008 43.832 37.1027 43.832 36.5833C43.832 36.064 44.0384 35.5658 44.4056 35.1986C44.7729 34.8313 45.271 34.625 45.7904 34.625H55.582C56.1014 34.625 56.5995 34.8313 56.9668 35.1986C57.334 35.5658 57.5404 36.064 57.5404 36.5833C57.5404 37.1027 57.334 37.6008 56.9668 37.9681C56.5995 38.3353 56.1014 38.5417 55.582 38.5417ZM55.582 30.7083H45.7904C45.271 30.7083 44.7729 30.502 44.4056 30.1348C44.0384 29.7675 43.832 29.2694 43.832 28.75C43.832 28.2306 44.0384 27.7325 44.4056 27.3652C44.7729 26.998 45.271 26.7917 45.7904 26.7917H55.582C56.1014 26.7917 56.5995 26.998 56.9668 27.3652C57.334 27.7325 57.5404 28.2306 57.5404 28.75C57.5404 29.2694 57.334 29.7675 56.9668 30.1348C56.5995 30.502 56.1014 30.7083 55.582 30.7083Z" fill="#9E3C90"/>
</svg>
