<svg width="72" height="72" viewBox="0 0 72 72" fill="none" xmlns="http://www.w3.org/2000/svg">
<path d="M51.75 25.1837V23.6172C51.75 16.5634 41.1103 11.2422 27 11.2422C12.8897 11.2422 2.25 16.5634 2.25 23.6172V34.8672C2.25 40.7425 9.63281 45.4113 20.25 46.8091V48.3672C20.25 55.4209 30.8897 60.7422 45 60.7422C59.1103 60.7422 69.75 55.4209 69.75 48.3672V37.1172C69.75 31.2953 62.6006 26.6209 51.75 25.1837ZM15.75 41.2994C10.2403 39.7609 6.75 37.2269 6.75 34.8672V30.91C9.045 32.5356 12.1191 33.8462 15.75 34.7266V41.2994ZM38.25 34.7266C41.8809 33.8462 44.955 32.5356 47.25 30.91V34.8672C47.25 37.2269 43.7597 39.7609 38.25 41.2994V34.7266ZM33.75 54.7994C28.2403 53.2609 24.75 50.7269 24.75 48.3672V47.1944C25.4897 47.2225 26.2378 47.2422 27 47.2422C28.0913 47.2422 29.1572 47.2056 30.2034 47.1437C31.3657 47.5598 32.5496 47.9129 33.75 48.2013V54.7994ZM33.75 42.25C31.5152 42.5801 29.2591 42.7447 27 42.7422C24.7409 42.7447 22.4848 42.5801 20.25 42.25V35.5591C22.4881 35.8507 24.743 35.9954 27 35.9922C29.257 35.9954 31.5119 35.8507 33.75 35.5591V42.25ZM51.75 55.75C47.2739 56.4062 42.7261 56.4062 38.25 55.75V49.0422C40.4874 49.343 42.7425 49.4933 45 49.4922C47.257 49.4954 49.5119 49.3507 51.75 49.0591V55.75ZM65.25 48.3672C65.25 50.7269 61.7597 53.2609 56.25 54.7994V48.2266C59.8809 47.3462 62.955 46.0356 65.25 44.41V48.3672Z" fill="#9E3C90"/>
</svg>
