<svg width="21" height="22" viewBox="0 0 21 22" fill="none" xmlns="http://www.w3.org/2000/svg">
<path d="M0 19.9997H21V21.4997H0V19.9997ZM18.75 7.24968C18.9489 7.24968 19.1397 7.17066 19.2803 7.03001C19.421 6.88936 19.5 6.69859 19.5 6.49968V4.24968C19.4999 4.09555 19.4524 3.94517 19.3638 3.81903C19.2752 3.69288 19.15 3.59709 19.005 3.54468L10.755 0.544681C10.5902 0.485106 10.4098 0.485106 10.245 0.544681L1.995 3.54468C1.85005 3.59709 1.72476 3.69288 1.63619 3.81903C1.54762 3.94517 1.50007 4.09555 1.5 4.24968V6.49968C1.5 6.69859 1.57902 6.88936 1.71967 7.03001C1.86032 7.17066 2.05109 7.24968 2.25 7.24968H3V16.9997H1.5V18.4997H19.5V16.9997H18V7.24968H18.75ZM3 4.77468L10.5 2.04468L18 4.77468V5.74968H3V4.77468ZM12 16.9997H9V7.24968H12V16.9997ZM4.5 7.24968H7.5V16.9997H4.5V7.24968ZM16.5 16.9997H13.5V7.24968H16.5V16.9997Z" fill="#B2B2B2"/>
</svg>
