<svg width="73" height="73" viewBox="0 0 73 73" fill="none" xmlns="http://www.w3.org/2000/svg">
<g clip-path="url(#clip0_182_14516)">
<path d="M59.8417 7.07812H15.7773C11.4611 7.07812 7.94922 10.5909 7.94922 14.9091V58.9697C7.94922 63.2897 11.462 66.8016 15.7773 66.8016H59.8417C64.1589 66.8016 67.6727 63.2897 67.6727 58.9697V14.9091C67.6727 10.5909 64.1589 7.07812 59.8417 7.07812ZM50.6148 45.2822V60.3806H31.6342V54.9347H28.8461C27.9248 54.9344 27.0126 54.7527 26.1616 54.4C25.3106 54.0472 24.5373 53.5302 23.8861 52.8786C23.2348 52.227 22.7183 51.4535 22.3659 50.6023C22.0136 49.7511 21.8324 48.8388 21.8327 47.9175V42.9459H19.4477C19.067 42.9457 18.7019 42.7946 18.4323 42.5258C18.1628 42.2569 18.0108 41.8923 18.0095 41.5116C18.0095 41.3103 18.0452 41.1244 18.1164 40.9538L21.8327 31.5956C21.8327 31.5956 22.217 27.7191 22.5667 26.235C24.1136 19.5581 31.5583 13.4991 39.6292 13.4991C49.4486 13.4991 57.4127 21.4641 57.4127 31.2919C57.4127 36.9675 54.7539 42.0262 50.6148 45.2822Z" fill="#9E3C90"/>
<path d="M49.9958 18.9797L47.817 20.5144C47.4886 20.3197 47.1439 20.1541 46.7867 20.0194C46.6845 19.9819 46.5833 19.9547 46.4811 19.9237L46.0058 17.2031H43.3864L42.9439 19.8225C42.4658 19.9453 42.0073 20.1253 41.5714 20.3522L39.3177 18.7594L37.4595 20.6137L39.0036 22.7831C38.8074 23.1147 38.6409 23.4629 38.5058 23.8238C38.4664 23.9259 38.4411 24.0281 38.4083 24.1294L36.1592 24.5147V23.2659L34.4417 22.9716C34.362 22.6736 34.2491 22.3856 34.1052 22.1128L35.158 20.6259L33.9411 19.4119L32.5086 20.4216C32.2987 20.2951 32.0782 20.1872 31.8495 20.0991C31.7895 20.0766 31.7267 20.0709 31.6648 20.0522L31.3536 18.2606H29.6436L29.3445 19.98C29.0451 20.0613 28.7555 20.1755 28.4811 20.3203L26.9905 19.2722L25.7802 20.4862L26.7927 21.9188C26.6708 22.1259 26.5573 22.3416 26.472 22.5769C26.4495 22.6388 26.4345 22.6997 26.4158 22.7634L24.6336 23.0691V24.7884L26.3623 25.0847C26.4417 25.3809 26.5508 25.6656 26.6895 25.9387L25.6377 27.4275L26.8498 28.6425L28.287 27.63C28.4961 27.7528 28.7127 27.8663 28.948 27.9544C29.008 27.9769 29.0708 27.9816 29.1308 28.0031L29.442 29.7947L31.1511 29.7928L31.4511 28.0753C31.7511 27.9956 32.0361 27.8794 32.3117 27.7369L33.7958 28.7831L35.0117 27.57L34.0011 26.1375C34.123 25.9303 34.2345 25.7166 34.3198 25.4831C34.3442 25.4213 34.3489 25.3566 34.3705 25.2937L35.6895 25.0669V27.2175L38.308 27.6675C38.4308 28.1456 38.6117 28.6041 38.8395 29.04L37.2505 31.2891L39.0973 33.1416L41.2752 31.6069C41.6005 31.7962 41.9408 31.965 42.3064 32.0991C42.4086 32.1384 42.5108 32.1637 42.613 32.1966L43.0873 34.9191H45.3598L45.1714 36.0094C44.8433 36.0844 44.533 36.2137 44.2414 36.3769L43.1539 35.6091L42.3017 36.4612L43.0377 37.5028C42.9081 37.7058 42.8006 37.922 42.717 38.1478C42.6833 38.2406 42.6702 38.3325 42.6439 38.4244L41.3248 38.6494V39.8522L42.5867 40.0706C42.6598 40.4006 42.7892 40.71 42.9542 41.0034L42.1864 42.0891L43.0348 42.945L44.0764 42.2062C44.2777 42.3356 44.4936 42.4437 44.7242 42.5306C44.817 42.5644 44.9108 42.5775 45.0045 42.6037L45.2211 43.9162H46.4277L46.648 42.6591C46.978 42.5859 47.2873 42.4566 47.5808 42.2916L48.6617 43.0594L49.5177 42.2053L48.7827 41.1703C48.912 40.9678 49.0245 40.7522 49.1098 40.5197C49.1427 40.4287 49.1548 40.3369 49.1811 40.2441L50.4889 40.0191V38.8125L49.2336 38.5969C49.1581 38.2697 49.0343 37.9556 48.8661 37.665L49.632 36.5775L48.7789 35.7253L47.7392 36.4556C47.536 36.326 47.3198 36.2179 47.0942 36.1331C47.0052 36.1003 46.9142 36.0881 46.8233 36.0637L46.5936 34.7512H45.732L46.1483 32.2969C46.6245 32.175 47.0811 31.995 47.5152 31.7691L49.7717 33.3619L51.6214 31.5112L50.0839 29.3334C50.2742 29.0081 50.4458 28.6659 50.5817 28.3003C50.6192 28.1991 50.6455 28.0969 50.6783 27.9947L53.3998 27.5269V24.9066L50.7777 24.4547C50.6531 23.9818 50.4761 23.5242 50.2498 23.0906L51.8389 20.8341L49.9958 18.9825V18.9797ZM30.328 25.7494C29.8297 25.7494 29.3518 25.5514 28.9995 25.1991C28.6472 24.8468 28.4492 24.3689 28.4492 23.8706C28.4492 23.3723 28.6472 22.8945 28.9995 22.5421C29.3518 22.1898 29.8297 21.9919 30.328 21.9919C30.8262 21.9919 31.3041 22.1898 31.6564 22.5421C32.0088 22.8945 32.2067 23.3723 32.2067 23.8706C32.2067 24.3689 32.0088 24.8468 31.6564 25.1991C31.3041 25.5514 30.8262 25.7494 30.328 25.7494ZM45.9167 37.5366C46.9489 37.5366 47.7861 38.3756 47.7861 39.4125C47.7868 39.9093 47.5904 40.3861 47.2399 40.7382C46.8894 41.0902 46.4135 41.2888 45.9167 41.2903C45.4184 41.2906 44.9403 41.0929 44.5876 40.7408C44.235 40.3886 44.0366 39.9109 44.0361 39.4125C44.0361 38.3756 44.8798 37.5366 45.9167 37.5366ZM44.4767 27.7828C43.4455 27.7828 42.6045 26.9456 42.6045 25.9069C42.6045 25.4103 42.8018 24.9341 43.1529 24.583C43.504 24.2319 43.9802 24.0347 44.4767 24.0347C44.9733 24.0347 45.4494 24.2319 45.8006 24.583C46.1517 24.9341 46.3489 25.4103 46.3489 25.9069C46.3495 26.1531 46.3015 26.397 46.2077 26.6246C46.1139 26.8523 45.9761 27.0591 45.8022 27.2334C45.6282 27.4077 45.4216 27.5459 45.1942 27.6402C44.9667 27.7345 44.7229 27.7829 44.4767 27.7828ZM25.3723 30.2241C24.8457 30.2241 24.3407 30.4333 23.9683 30.8056C23.5959 31.178 23.3867 31.6831 23.3867 32.2097C23.3867 32.7363 23.5959 33.2414 23.9683 33.6137C24.3407 33.9861 24.8457 34.1953 25.3723 34.1953C25.9005 34.1956 26.4072 33.986 26.781 33.6128C27.1547 33.2396 27.365 32.7332 27.3655 32.205C27.3647 31.944 27.3126 31.6857 27.212 31.4448C27.1115 31.204 26.9644 30.9853 26.7794 30.8013C26.5943 30.6172 26.3748 30.4715 26.1334 30.3723C25.8919 30.2731 25.6333 30.2233 25.3723 30.2241Z" fill="#9E3C90"/>
</g>
<defs>
<clipPath id="clip0_182_14516">
<rect width="60" height="60" fill="white" transform="translate(6.75 5.88281)"/>
</clipPath>
</defs>
</svg>
