<svg width="72" height="72" viewBox="0 0 72 72" fill="none" xmlns="http://www.w3.org/2000/svg">
<path d="M64.7803 39.6812C64.0445 39.1142 63.2011 38.7028 62.3012 38.4722C61.4014 38.2415 60.4641 38.1964 59.5463 38.3396C64.8281 33.0071 67.5 27.7056 67.5 22.5081C67.5 15.0634 61.5122 9.00808 54.1519 9.00808C52.1989 8.99581 50.2669 9.41118 48.4915 10.225C46.7162 11.0388 45.1404 12.2314 43.875 13.719C42.6096 12.2314 41.0338 11.0388 39.2585 10.225C37.4831 9.41118 35.5511 8.99581 33.5981 9.00808C26.2378 9.00808 20.25 15.0634 20.25 22.5081C20.25 25.6018 21.1612 28.6084 23.0794 31.7893C21.5084 32.1873 20.0748 33.0038 18.9309 34.1518L12.5691 40.5081H4.5C3.30653 40.5081 2.16193 40.9822 1.31802 41.8261C0.474106 42.67 0 43.8146 0 45.0081L0 56.2581C0 57.4515 0.474106 58.5961 1.31802 59.4401C2.16193 60.284 3.30653 60.7581 4.5 60.7581H33.75C33.934 60.7582 34.1172 60.7355 34.2956 60.6906L52.2956 56.1906C52.4104 56.1633 52.5224 56.1256 52.6303 56.0781L63.5625 51.4262L63.6863 51.3699C64.7369 50.8449 65.6366 50.0611 66.3006 49.0923C66.9646 48.1234 67.3711 47.0015 67.4816 45.8322C67.5922 44.6629 67.4033 43.4847 66.9327 42.4086C66.462 41.3324 65.7252 40.3938 64.7916 39.6812H64.7803ZM61.7147 47.3171L51.0272 51.8678L33.4688 56.2581H15.75V43.689L22.1147 37.3271C22.531 36.9075 23.0267 36.5747 23.5727 36.3483C24.1188 36.1218 24.7045 36.0062 25.2956 36.0081H39.375C40.2701 36.0081 41.1285 36.3637 41.7615 36.9966C42.3944 37.6295 42.75 38.488 42.75 39.3831C42.75 40.2782 42.3944 41.1366 41.7615 41.7696C41.1285 42.4025 40.2701 42.7581 39.375 42.7581H31.5C30.9033 42.7581 30.331 42.9951 29.909 43.4171C29.4871 43.839 29.25 44.4113 29.25 45.0081C29.25 45.6048 29.4871 46.1771 29.909 46.5991C30.331 47.021 30.9033 47.2581 31.5 47.2581H40.5C40.6694 47.2576 40.8382 47.2387 41.0034 47.2018L59.8472 42.8678L59.9344 42.8453C60.5096 42.6856 61.1236 42.7443 61.6582 43.01C62.1927 43.2758 62.6101 43.7299 62.8301 44.2849C63.05 44.8399 63.0568 45.4566 62.8494 46.0164C62.6419 46.5762 62.2348 47.0395 61.7062 47.3171H61.7147Z" fill="#9E3C90"/>
</svg>
