<svg width="21" height="24" viewBox="0 0 21 24" fill="none" xmlns="http://www.w3.org/2000/svg">
<path d="M17.0535 16.2469V23.8534H7.49133V21.1099H6.08658C4.13583 21.1099 2.55333 19.5281 2.55333 17.5747V15.0701H1.35183C1.16003 15.0699 0.976109 14.9938 0.840276 14.8584C0.704443 14.723 0.627746 14.5393 0.626953 14.3475C0.626953 14.247 0.644953 14.1517 0.680953 14.0666L2.55333 9.35175C2.55333 9.35175 2.74683 7.39875 2.92308 6.651C3.7027 3.28687 7.4527 0.234375 11.5192 0.234375C16.4662 0.234375 20.4783 4.24687 20.4783 9.19837C20.4783 12.0577 19.1388 14.6062 17.0535 16.2469ZM4.75458 9.138C4.49021 9.13869 4.2369 9.24415 4.05014 9.43126C3.86338 9.61837 3.7584 9.87188 3.7582 10.1362C3.75761 10.4012 3.8622 10.6556 4.04901 10.8436C4.23582 11.0315 4.48959 11.1376 4.75458 11.1386C4.88631 11.1387 5.01677 11.1129 5.13851 11.0626C5.26026 11.0122 5.3709 10.9384 5.46411 10.8453C5.55733 10.7523 5.63131 10.6417 5.68181 10.5201C5.73231 10.3984 5.75836 10.268 5.75845 10.1362C5.75736 9.87086 5.65107 9.61673 5.46288 9.4296C5.27469 9.24247 5.01997 9.1376 4.75458 9.138ZM13.4355 6.963C13.4355 7.21323 13.5349 7.45321 13.7118 7.63015C13.8887 7.8071 14.1287 7.9065 14.379 7.9065C14.6292 7.9065 14.8692 7.8071 15.0461 7.63015C15.223 7.45321 15.3225 7.21323 15.3225 6.963C15.3225 6.71277 15.223 6.47278 15.0461 6.29584C14.8692 6.1189 14.6292 6.0195 14.379 6.0195C14.1287 6.0195 13.8887 6.1189 13.7118 6.29584C13.5349 6.47278 13.4355 6.71277 13.4355 6.963ZM6.30408 5.9385C6.30403 6.06279 6.3285 6.18587 6.37608 6.30068C6.42367 6.4155 6.49344 6.51981 6.58139 6.60762C6.66935 6.69544 6.77376 6.76504 6.88866 6.81244C7.00355 6.85985 7.12667 6.88412 7.25095 6.88387C7.50198 6.88387 7.74273 6.78415 7.92023 6.60665C8.09773 6.42915 8.19745 6.1884 8.19745 5.93737C8.19745 5.68635 8.09773 5.4456 7.92023 5.2681C7.74273 5.09059 7.50198 4.99087 7.25095 4.99087C7.12654 4.99087 7.00336 5.01539 6.88843 5.06302C6.7735 5.11065 6.66908 5.18047 6.58115 5.26847C6.49321 5.35648 6.42348 5.46095 6.37594 5.57592C6.3284 5.69088 6.30398 5.81409 6.30408 5.9385ZM17.5038 8.01337L18.8752 7.7775V6.4575L17.5541 6.22988C17.4913 5.99153 17.402 5.76096 17.2878 5.5425L18.0885 4.4055L17.1596 3.47325L16.062 4.2465C15.8963 4.14872 15.7225 4.06529 15.5426 3.99712C15.4912 3.97837 15.4398 3.9645 15.3885 3.94875L15.1492 2.57812H13.8296L13.6068 3.89812C13.367 3.96028 13.1351 4.04987 12.9157 4.16512L11.7802 3.36262L10.8438 4.29675L11.6216 5.38987C11.5225 5.55661 11.4387 5.73195 11.3711 5.91375C11.3512 5.96512 11.3385 6.0165 11.322 6.06787L10.1891 6.26212V5.63287L9.32395 5.48437C9.28391 5.33433 9.22705 5.18928 9.15445 5.052L9.6847 4.30275L9.07195 3.69112L8.35045 4.2C8.24436 4.13672 8.13323 4.08229 8.0182 4.03725C7.98783 4.026 7.95633 4.02337 7.9252 4.01362L7.76845 3.111H6.90708L6.75633 3.97725C6.60445 4.01737 6.46008 4.07662 6.32133 4.149L5.57058 3.62062L4.96083 4.23225L5.47083 4.95375C5.40698 5.0591 5.35288 5.17006 5.3092 5.28525C5.29758 5.31637 5.29045 5.34712 5.2807 5.37937L4.38295 5.5335V6.39937L5.25408 6.54862C5.29358 6.69787 5.34858 6.84137 5.41908 6.97912L4.8892 7.72912L5.4997 8.3415L6.22383 7.8315C6.3292 7.89337 6.43833 7.95075 6.55683 7.995C6.5872 8.00662 6.6187 8.00887 6.64908 8.01937L6.80583 8.922L7.66683 8.92125L7.81795 8.05612C7.96824 8.01521 8.1136 7.958 8.25145 7.8855L8.9992 8.41275L9.61195 7.8015L9.1027 7.08C9.16383 6.97537 9.22045 6.86775 9.26358 6.75037C9.27595 6.71925 9.2782 6.68662 9.28908 6.65475L9.95358 6.54V7.62337L11.2725 7.85025C11.3347 8.091 11.4255 8.322 11.5402 8.54137L10.7396 9.67425L11.6703 10.6076L12.7672 9.83437C12.9311 9.93 13.1025 10.0147 13.287 10.0826C13.3383 10.1021 13.3897 10.1152 13.4411 10.1317L13.6803 11.5031H14.8256L14.7311 12.0525C14.5657 12.09 14.4097 12.1552 14.2627 12.2377L13.7152 11.8507L13.2858 12.2805L13.6563 12.8051C13.5926 12.9064 13.5371 13.014 13.4947 13.1302C13.4778 13.1767 13.4711 13.2232 13.458 13.2697L12.7935 13.3834V13.989L13.4295 14.0992C13.4662 14.2657 13.5315 14.4214 13.6147 14.5695L13.2277 15.1162L13.6556 15.5471L14.1802 15.1751C14.2815 15.2396 14.3898 15.2951 14.5065 15.3382C14.553 15.3555 14.6002 15.3619 14.6478 15.375L14.757 16.0361H15.3648L15.4758 15.4027C15.6423 15.366 15.7983 15.3007 15.9461 15.2175L16.4906 15.6041L16.9215 15.174L16.551 14.6524C16.6162 14.5504 16.6725 14.4416 16.716 14.3242C16.7321 14.2785 16.7388 14.232 16.752 14.1855L17.4108 14.0719V13.464L16.7782 13.3556C16.7403 13.1909 16.6779 13.0327 16.593 12.8865L16.9788 12.3386L16.5487 11.9092L16.0248 12.2775C15.9225 12.2119 15.8135 12.1574 15.6997 12.1147C15.6551 12.0986 15.6093 12.0919 15.5636 12.0799L15.4477 11.4187H15.0135L15.2231 10.182C15.4622 10.1204 15.6934 10.0311 15.912 9.91612L17.049 10.7186L17.9808 9.78637L17.2061 8.6895C17.3025 8.52525 17.388 8.35312 17.4566 8.16862C17.4757 8.11687 17.4888 8.0655 17.5053 8.01412L17.5038 8.01337ZM14.157 13.7674C14.1573 14.0185 14.2572 14.2592 14.4349 14.4366C14.6126 14.614 14.8535 14.7136 15.1046 14.7135C15.2286 14.7133 15.3513 14.6886 15.4657 14.6409C15.5802 14.5932 15.6841 14.5234 15.7716 14.4356C15.8591 14.3477 15.9284 14.2435 15.9756 14.1288C16.0227 14.0142 16.0469 13.8914 16.0466 13.7674C16.0468 13.6434 16.0227 13.5207 15.9754 13.4061C15.9282 13.2915 15.8589 13.1873 15.7714 13.0995C15.6839 13.0117 15.58 12.942 15.4656 12.8944C15.3512 12.8468 15.2285 12.8222 15.1046 12.822C14.8536 12.8218 14.6128 12.9213 14.4351 13.0985C14.2574 13.2758 14.1573 13.5164 14.157 13.7674Z" fill="#B2B2B2"/>
</svg>
