<svg width="25" height="24" viewBox="0 0 25 24" fill="none" xmlns="http://www.w3.org/2000/svg">
<path d="M19.5 15.5V22H7.3125C5.4375 22 4.5 21 4.5 18.5V2H10.5" stroke="#B2B2B2" stroke-width="1.5" stroke-linecap="round" stroke-linejoin="round"/>
<path d="M17 13C19.4853 13 21.5 10.9853 21.5 8.5C21.5 6.01472 19.4853 4 17 4C14.5147 4 12.5 6.01472 12.5 8.5C12.5 10.9853 14.5147 13 17 13Z" stroke="#B2B2B2" stroke-width="1.5"/>
<path d="M11.5 9V8M22.5 9V8M15 2C16.4 2.4 16.9165 3.5 17 4C17.0415 3.5 17.3 2.4 18 2" stroke="#B2B2B2" stroke-width="1.5" stroke-linecap="round" stroke-linejoin="round"/>
<path d="M18.5 9C19.0523 9 19.5 8.55228 19.5 8C19.5 7.44772 19.0523 7 18.5 7C17.9477 7 17.5 7.44772 17.5 8C17.5 8.55228 17.9477 9 18.5 9Z" fill="#B2B2B2"/>
<path d="M15.5 9C16.0523 9 16.5 8.55228 16.5 8C16.5 7.44772 16.0523 7 15.5 7C14.9477 7 14.5 7.44772 14.5 8C14.5 8.55228 14.9477 9 15.5 9Z" fill="#B2B2B2"/>
<path d="M4.5 18H19.5" stroke="#B2B2B2" stroke-width="1.5" stroke-linecap="round" stroke-linejoin="round"/>
</svg>
