<svg width="72" height="72" viewBox="0 0 72 72" fill="none" xmlns="http://www.w3.org/2000/svg">
<path d="M18.0294 41.5746C18.037 41.727 18.0136 41.8793 17.9605 42.0224C17.9073 42.1654 17.8257 42.2962 17.7205 42.4067C17.6152 42.5172 17.4886 42.6051 17.3483 42.6651C17.208 42.7251 17.057 42.756 16.9044 42.7558H4.49564C3.9878 42.7566 3.49464 42.5855 3.09634 42.2705C2.69805 41.9554 2.41805 41.5149 2.30189 41.0205C2.22955 40.6821 2.23289 40.3319 2.31165 39.995C2.39042 39.658 2.54267 39.3427 2.75751 39.0714C4.7426 36.4389 7.37645 34.3661 10.4019 33.0555C9.07362 31.8444 8.05487 30.3327 7.43098 28.647C6.80708 26.9613 6.5962 25.1506 6.81599 23.3666C7.03578 21.5826 7.67985 19.8772 8.69425 18.3933C9.70865 16.9094 11.0638 15.6902 12.6463 14.8377C14.2288 13.9853 15.9926 13.5245 17.7898 13.4938C19.587 13.4632 21.3654 13.8636 22.976 14.6616C24.5867 15.4596 25.9827 16.6319 27.0471 18.0804C28.1115 19.5289 28.8133 21.2113 29.0938 22.9867C29.13 23.2255 29.0872 23.4695 28.972 23.6818C28.8567 23.894 28.6753 24.0627 28.4553 24.1624C25.3346 25.6051 22.6916 27.9104 20.8382 30.8063C18.9849 33.7021 17.9986 37.0677 17.9956 40.5058C17.9956 40.8658 17.9956 41.2202 18.0294 41.5746ZM69.2169 39.0686C67.2364 36.4391 64.6086 34.3675 61.5894 33.0555C62.9177 31.8444 63.9364 30.3327 64.5603 28.647C65.1842 26.9613 65.3951 25.1506 65.1753 23.3666C64.9555 21.5826 64.3114 19.8772 63.297 18.3933C62.2826 16.9094 60.9274 15.6902 59.3449 14.8377C57.7624 13.9853 55.9987 13.5245 54.2015 13.4938C52.4043 13.4632 50.6259 13.8636 49.0152 14.6616C47.4046 15.4596 46.0086 16.6319 44.9442 18.0804C43.8798 19.5289 43.178 21.2113 42.8975 22.9867C42.8613 23.2255 42.9041 23.4695 43.0193 23.6818C43.1346 23.894 43.316 24.0627 43.536 24.1624C46.6567 25.6051 49.2997 27.9104 51.153 30.8063C53.0064 33.7021 53.9927 37.0677 53.9956 40.5058C53.9956 40.8658 53.9956 41.2202 53.9619 41.5746C53.9543 41.727 53.9777 41.8793 54.0308 42.0224C54.0839 42.1654 54.1656 42.2962 54.2708 42.4067C54.3761 42.5172 54.5027 42.6051 54.643 42.6651C54.7833 42.7251 54.9343 42.756 55.0869 42.7558H67.4956C68.0035 42.7566 68.4966 42.5855 68.8949 42.2705C69.2932 41.9554 69.5732 41.5149 69.6894 41.0205C69.7622 40.6815 69.7588 40.3306 69.6795 39.993C69.6002 39.6555 69.447 39.3398 69.231 39.0686H69.2169ZM44.1856 51.213C46.4259 49.4973 48.0723 47.1227 48.8933 44.4229C49.7143 41.7232 49.6687 38.8341 48.7629 36.1616C47.8571 33.4891 46.1367 31.1676 43.8434 29.5235C41.55 27.8793 38.7992 26.9951 35.9774 26.9951C33.1555 26.9951 30.4047 27.8793 28.1113 29.5235C25.818 31.1676 24.0976 33.4891 23.1918 36.1616C22.286 38.8341 22.2404 41.7232 23.0614 44.4229C23.8824 47.1227 25.5288 49.4973 27.7691 51.213C23.7937 52.9354 20.4742 55.8854 18.2966 59.6308C18.0991 59.9729 17.9951 60.3609 17.9951 60.7559C17.9952 61.1509 18.0992 61.539 18.2967 61.881C18.4942 62.2231 18.7783 62.5071 19.1205 62.7045C19.4626 62.902 19.8506 63.0059 20.2456 63.0058H51.7456C52.1406 63.0059 52.5287 62.902 52.8708 62.7045C53.2129 62.5071 53.497 62.2231 53.6946 61.881C53.8921 61.539 53.9961 61.1509 53.9961 60.7559C53.9962 60.3609 53.8922 59.9729 53.6947 59.6308C51.5124 55.8829 48.1867 52.9328 44.2053 51.213H44.1856Z" fill="#9E3C90"/>
</svg>
