<svg width="25" height="24" viewBox="0 0 25 24" fill="none" xmlns="http://www.w3.org/2000/svg">
<path d="M5.5 16L10.5 13M14.5 11L19.5 8M12.5 5V10M12.5 14V19M5.5 8L10.5 11M14.5 13L19.5 16M21 9V14.5M14 20.5L19.5 17.5M5 17.5L11 20.5M4 15V9M5 6.5L11 3.5M20 6.5L14 3.5" stroke="#B2B2B2" stroke-width="1.5" stroke-linecap="round" stroke-linejoin="round"/>
<path d="M12.5 5C13.3284 5 14 4.32843 14 3.5C14 2.67157 13.3284 2 12.5 2C11.6716 2 11 2.67157 11 3.5C11 4.32843 11.6716 5 12.5 5Z" stroke="#B2B2B2" stroke-width="1.5" stroke-linecap="round" stroke-linejoin="round"/>
<path d="M12.5 22C13.3284 22 14 21.3284 14 20.5C14 19.6716 13.3284 19 12.5 19C11.6716 19 11 19.6716 11 20.5C11 21.3284 11.6716 22 12.5 22Z" stroke="#B2B2B2" stroke-width="1.5" stroke-linecap="round" stroke-linejoin="round"/>
<path d="M4 9C4.82843 9 5.5 8.32843 5.5 7.5C5.5 6.67157 4.82843 6 4 6C3.17157 6 2.5 6.67157 2.5 7.5C2.5 8.32843 3.17157 9 4 9Z" stroke="#B2B2B2" stroke-width="1.5" stroke-linecap="round" stroke-linejoin="round"/>
<path d="M21 9C21.8284 9 22.5 8.32843 22.5 7.5C22.5 6.67157 21.8284 6 21 6C20.1716 6 19.5 6.67157 19.5 7.5C19.5 8.32843 20.1716 9 21 9Z" stroke="#B2B2B2" stroke-width="1.5" stroke-linecap="round" stroke-linejoin="round"/>
<path d="M21 18C21.8284 18 22.5 17.3284 22.5 16.5C22.5 15.6716 21.8284 15 21 15C20.1716 15 19.5 15.6716 19.5 16.5C19.5 17.3284 20.1716 18 21 18Z" stroke="#B2B2B2" stroke-width="1.5" stroke-linecap="round" stroke-linejoin="round"/>
<path d="M4 18C4.82843 18 5.5 17.3284 5.5 16.5C5.5 15.6716 4.82843 15 4 15C3.17157 15 2.5 15.6716 2.5 16.5C2.5 17.3284 3.17157 18 4 18Z" stroke="#B2B2B2" stroke-width="1.5" stroke-linecap="round" stroke-linejoin="round"/>
<path d="M12.5 9.75L14.5 10.875V13.125L12.5 14.25L10.5 13.125V10.875L12.5 9.75Z" stroke="#B2B2B2" stroke-width="1.5" stroke-linecap="round" stroke-linejoin="round"/>
</svg>
