<svg width="40" height="40" viewBox="0 0 40 40" fill="none" xmlns="http://www.w3.org/2000/svg">
<rect width="40" height="40" rx="20" fill="white"/>
<path d="M12.0387 18.9575C16.9944 16.8406 20.299 15.4451 21.9524 14.7708C26.6734 12.8457 27.6544 12.5113 28.2938 12.5001C28.4344 12.4978 28.7488 12.532 28.9525 12.694C29.1245 12.8308 29.1718 13.0156 29.1944 13.1453C29.2171 13.2751 29.2453 13.5706 29.2229 13.8015C28.967 16.4368 27.8601 22.8322 27.2969 25.7839C27.0586 27.0328 26.5894 27.4516 26.1351 27.4926C25.1479 27.5816 24.3983 26.8529 23.4421 26.2385C21.946 25.2769 21.1007 24.6783 19.6484 23.74C17.97 22.6557 19.0581 22.0597 20.0146 21.0857C20.2649 20.8308 24.6145 16.952 24.6987 16.6001C24.7092 16.5561 24.719 16.392 24.6196 16.3054C24.5202 16.2188 24.3735 16.2484 24.2676 16.272C24.1176 16.3054 21.7274 17.8542 17.0971 20.9186C16.4187 21.3753 15.8041 21.5979 15.2536 21.5862C14.6466 21.5734 13.479 21.2497 12.611 20.9731C11.5464 20.6338 10.7003 20.4545 10.774 19.8783C10.8124 19.5781 11.2339 19.2712 12.0387 18.9575Z" fill="#0C1518"/>
</svg>
