<svg width="60" height="62" viewBox="0 0 60 62" fill="none" xmlns="http://www.w3.org/2000/svg">
<rect x="1.65769" y="1.15769" width="57.1846" height="59.9077" stroke="#9E3C90" stroke-width="1.81538"/>
<path d="M23.4411 13.028C23.4411 9.17161 26.4673 6.04688 30.2016 6.04688C33.9358 6.04688 36.962 9.17161 36.962 13.028M18.2676 37.3906H22.2624V56.1969H28.2546V43.6594H32.2493V56.1969H38.2415V37.3906H42.2363V16.4948H18.2676V37.3906Z" stroke="#9E3C90" stroke-width="2.61415" stroke-linecap="round" stroke-linejoin="round"/>
<path d="M30.2543 22.5703C29.6918 22.5715 29.1466 22.7744 28.7099 23.1453C28.2731 23.5161 27.9711 24.0325 27.8543 24.6082C27.7376 25.1838 27.813 25.784 28.0682 26.3085C28.3233 26.833 28.7426 27.2501 29.2562 27.4902V31.3003H31.2536V27.4902C31.7673 27.25 32.1867 26.8328 32.4418 26.3082C32.6969 25.7836 32.7723 25.1833 32.6554 24.6076C32.5384 24.0318 32.2362 23.5154 31.7993 23.1447C31.3623 22.7739 30.8169 22.5712 30.2543 22.5703Z" stroke="white" stroke-width="1.36154" stroke-linecap="round" stroke-linejoin="round"/>
</svg>
