<svg width="373" height="565" viewBox="0 0 373 565" fill="none" xmlns="http://www.w3.org/2000/svg">
<g opacity="0.15" clip-path="url(#clip0_169_223)">
<path d="M298.645 594.09C301.664 595.528 304.703 596.897 307.77 598.186C307.899 598.241 308.031 598.297 308.159 598.352C308.816 598.627 309.466 598.912 310.122 599.176C315.468 601.333 320.286 602.118 324.444 597.536C327.564 594.097 329.078 589.317 330.033 584.864C330.839 581.105 331.409 577.27 331.781 573.415C331.808 573.123 331.826 572.828 331.85 572.539C337.026 565.717 343.692 555.678 345.856 552.242C351.4 543.447 356.527 534.377 361.797 525.418C368.046 514.792 374.295 504.166 380.541 493.54C387.878 492.137 395.374 491.428 402.846 490.758C393.168 507.352 386.238 525.894 385.637 545.08C385.161 560.374 388.683 575.791 386.231 590.894C385.561 595.025 384.466 598.988 383.035 602.809C369.255 608.933 355.037 614.074 340.517 618.149C329.891 621.129 319.102 623.537 308.219 625.374C305.026 614.946 301.834 604.518 298.641 594.094L298.645 594.09Z" fill="#008080"/>
<path d="M273.779 309.893C284.61 296.401 293.1 282.979 299.731 266.944C301.375 262.97 302.962 258.819 305.432 255.359C305.449 259.715 305.338 264.068 305.053 268.41C304.567 275.882 303.535 283.614 299.495 289.923C297.289 293.372 294.309 296.196 291.304 299.003C289.988 300.236 288.668 301.466 287.403 302.741C283.183 307.01 281.936 311.415 279.692 316.246C279.403 316.872 279.101 317.5 278.768 318.14C277.955 319.703 277.045 321.374 276.072 323.069C275.871 323.114 275.673 323.166 275.471 323.211C270.994 324.212 266.318 325.15 262.57 327.741C264.897 321.374 268.878 315.979 273.766 309.89L273.779 309.893Z" fill="#A1A8C3"/>
<path d="M263.465 216.951C267.318 216.423 279.927 209.996 292.488 202.594C293.721 203.563 294.923 204.574 296.08 205.651C296.497 206.04 296.837 206.453 297.191 206.866C297.112 206.898 297.046 206.929 296.962 206.964C291.54 209.215 269.801 216.36 266.873 216.926C265.212 217.249 263.003 217.552 261.197 216.951C261.933 217.034 262.691 217.055 263.469 216.951H263.465Z" fill="#A1A8C3"/>
<path d="M367.556 231.567C358.667 234.099 349.382 238.726 345.901 247.289C343.855 252.319 344.143 257.977 342.823 263.247C341.059 270.309 336.529 276.2 330.832 280.858C327.702 283.419 324.221 285.604 320.654 287.41C311.261 292.155 300.993 294.896 291.312 299.016C294.313 296.205 297.297 293.381 299.503 289.935C303.539 283.627 304.571 275.898 305.061 268.423C305.342 264.077 305.457 259.724 305.439 255.372C305.439 255.351 305.439 255.33 305.439 255.309C316.739 246.639 326.702 236.225 334.806 224.511C339.2 218.162 345.623 213.451 352.563 210.214C360.417 206.549 368.32 206.896 376.515 204.586C381.208 203.263 387.002 200.866 392 197.625C392.063 201.335 392.212 205.048 392.546 208.769C392.942 213.163 393.376 217.727 394.074 222.24C393.925 222.344 393.782 222.462 393.63 222.563C385.956 227.718 376.445 229.038 367.556 231.57V231.567Z" fill="#A064DA"/>
<path d="M352.563 210.203C345.622 213.44 339.196 218.154 334.805 224.501C326.698 236.214 316.735 246.628 305.439 255.299C305.383 244.332 304.386 233.366 302.43 222.573C302.326 221.989 302.229 221.406 302.132 220.829C308.947 213.249 316.589 206.42 324.909 200.532C329.181 197.51 334.361 192.553 339.3 190.834C345.511 188.673 353.567 190.712 360.08 190.052C369.278 189.114 378.56 187.148 386.546 182.49C388.662 181.257 390.676 179.801 392.531 178.172C392.121 184.654 391.892 191.129 392.003 197.614C387.005 200.855 381.21 203.252 376.517 204.576C368.323 206.886 360.42 206.538 352.566 210.203H352.563Z" fill="#20325F"/>
<path d="M365.44 239.692C365.298 239.772 365.159 239.856 365.02 239.939C360.393 242.631 355.884 245.806 353.209 250.412C346.523 261.934 353.203 275.93 346.304 286.466C330.488 297.964 311.775 305.46 293.455 312.71C288.96 314.488 284.434 316.142 279.702 316.249C281.946 311.417 283.193 307.013 287.414 302.744C288.678 301.465 289.998 300.239 291.315 299.006C300.996 294.886 311.264 292.149 320.657 287.4C324.225 285.594 327.709 283.409 330.835 280.849C336.532 276.191 341.065 270.299 342.827 263.237C344.143 257.968 343.858 252.309 345.904 247.279C349.385 238.716 358.67 234.089 367.559 231.557C376.449 229.025 385.96 227.705 393.633 222.55C393.786 222.445 393.925 222.331 394.078 222.227C394.283 223.564 394.519 224.891 394.779 226.214C385.102 228.198 373.875 234.909 366.073 239.321C365.861 239.442 365.652 239.567 365.44 239.689V239.692Z" fill="#20325F"/>
<path d="M313.25 310.389C307.943 312.852 302.52 315.064 297.004 317.02C290.157 319.445 283.165 321.466 276.082 323.075C277.051 321.379 277.965 319.709 278.777 318.145C279.111 317.506 279.41 316.878 279.701 316.252C284.433 316.145 288.959 314.491 293.454 312.713C311.771 305.463 330.487 297.963 346.303 286.469C345.518 287.667 344.566 288.82 343.392 289.925C333.592 299.092 325.527 304.692 313.25 310.392V310.389Z" fill="#008080"/>
<path d="M360.075 190.055C353.562 190.718 345.506 188.676 339.295 190.836C334.359 192.556 329.176 197.513 324.904 200.535C316.584 206.419 308.942 213.252 302.127 220.832C301.262 215.677 300.543 210.765 297.194 206.867C296.84 206.458 296.499 206.041 296.082 205.652C294.929 204.575 293.724 203.564 292.49 202.595C295.384 200.889 298.271 199.135 301.053 197.384C311.374 190.888 320.176 184.504 321.927 181.315C323.75 177.991 323.775 173.468 323.827 169.633C334.415 180.301 349.737 186.001 365.761 183.708C376.474 182.173 385.878 177.289 393.082 170.272C392.877 172.909 392.693 175.545 392.53 178.175C390.675 179.804 388.66 181.256 386.545 182.492C378.558 187.151 369.277 189.117 360.078 190.055H360.075Z" fill="#008080"/>
<path d="M371.522 20.5782C386.768 27.543 397.381 40.9202 402.539 56.3261C397.398 58.0977 391.941 58.8584 386.393 58.7647C385.365 54.5858 383.857 50.5528 381.794 46.8325C375.02 34.6328 362.373 27.6715 349.315 27.6333C348.346 25.035 347.352 22.5548 346.341 20.2274C345.751 18.8622 345.15 17.5561 344.549 16.3021C353.685 15.26 363.102 16.7294 371.522 20.5747V20.5782Z" fill="#A064DA"/>
<path d="M364.565 31.8148C375.754 37.067 382.43 47.304 385.275 58.736C375.546 58.3817 365.604 55.4846 356.69 51.007C354.544 43.0696 352.168 35.3892 349.639 28.5078C354.731 28.5182 359.827 29.5951 364.565 31.8183V31.8148Z" fill="#A064DA"/>
<path d="M385.275 58.7403C386.797 64.8505 387.241 71.2943 386.651 77.5122C386.616 77.8873 386.55 78.259 386.508 78.6307C378.328 78.398 370.182 77.1197 362.335 74.8166C360.719 66.9834 358.819 58.8723 356.69 51.0078C365.603 55.4889 375.545 58.3825 385.275 58.7368V58.7403Z" fill="#20325F"/>
<path d="M386.508 78.631C386.296 80.4686 386.004 82.2992 385.605 84.109C378.768 79.8641 370.942 77.1755 362.661 76.4252C362.553 75.8902 362.445 75.3553 362.331 74.8203C370.178 77.1234 378.327 78.4017 386.504 78.6344L386.508 78.631Z" fill="#008080"/>
<path d="M381.795 46.8433C383.862 50.5636 385.366 54.5966 386.394 58.7754C387.975 65.2018 388.378 71.9894 387.607 78.6381C387.37 80.6841 386.999 82.7093 386.547 84.7136C386.234 84.5087 385.922 84.3037 385.606 84.1057C386.002 82.2994 386.297 80.4687 386.509 78.6277C386.551 78.256 386.617 77.8843 386.651 77.5091C387.242 71.2912 386.794 64.8475 385.276 58.7372C382.431 47.3087 375.754 37.0683 364.565 31.816C359.827 29.5928 354.735 28.516 349.639 28.5056C349.535 28.2138 349.424 27.9289 349.316 27.6406C362.374 27.6788 375.021 34.6367 381.795 46.8398V46.8433Z" fill="#097CC0"/>
<path d="M406.088 77.1371C405.963 70.0577 404.778 62.9991 402.541 56.3296C397.379 40.9203 386.771 27.5465 371.524 20.5817C363.108 16.7363 353.687 15.267 344.551 16.3091C344.402 15.9999 344.252 15.6942 344.103 15.392C362.732 13.2036 381.685 21.808 393.485 36.995C397.935 42.7197 401.242 49.1773 403.503 55.9927C405.737 62.7282 406.932 69.8146 407.081 76.9426C407.262 85.481 405.949 94.0506 403.218 102.106C402.996 101.731 402.77 101.363 402.541 100.995C404.931 93.5955 406.14 85.7901 406.119 78.1827C406.119 77.8353 406.088 77.488 406.081 77.1371H406.088Z" fill="#097CC0"/>
<path d="M219.646 150.354C220.201 146.759 222.3 143.823 224.533 141.135C227.187 137.935 229.497 134.031 231.797 130.547C234.246 126.84 236.316 122.668 236.361 118.229C236.371 117.343 236.434 116.315 236.434 115.294C236.764 115.381 237.097 115.488 237.434 115.617C238.675 116.1 239.904 116.857 240.797 117.746C241.711 118.656 242.426 120.365 243.531 121.241C243.517 121.408 243.513 121.574 243.5 121.744C243.434 122.439 243.34 123.13 243.225 123.811C243.149 124.263 243.194 124.822 243.552 125.152C243.774 125.354 244.177 125.343 244.451 125.326C245.546 125.256 246.671 124.791 247.724 124.485C248.807 124.169 249.895 123.846 250.975 123.509C254.73 122.345 258.45 121.064 262.087 119.566C265.71 118.076 269.247 116.374 272.627 114.398C272.706 114.349 272.786 114.286 272.863 114.224C274.791 113.679 276.656 112.914 278.393 111.917C278.667 111.758 274.822 109.236 274.433 109.083C273.03 108.534 271.518 107.94 270.07 107.506C265.895 106.255 261.132 105.818 256.793 105.623C254.702 105.529 252.576 105.585 250.503 105.873C250.193 101.274 249.881 96.6747 249.759 92.0721C249.474 84.5828 249.704 77.0344 251.284 69.7223C252.885 62.4483 256.015 55.4523 260.875 49.7971C265.669 44.0759 271.619 39.4142 277.889 35.3673C284.149 31.2753 290.829 27.8328 297.651 24.7274C304.494 21.6635 311.452 18.829 318.587 16.5155C325.712 14.1777 332.996 12.3089 340.364 10.8985C340.763 10.8186 341.17 10.7561 341.569 10.6797C342.42 12.1247 343.268 13.7018 344.105 15.3866C344.254 15.6888 344.404 15.9945 344.553 16.3036C345.154 17.5576 345.755 18.8637 346.346 20.2289C349.131 34.9192 346.596 50.6412 338.96 63.5217C330.523 77.7535 316.847 87.9175 304.727 99.1793C294.83 108.378 284.121 120.06 281.21 133.725C277.948 149.051 284.1 165.43 281.054 181.127C278.528 194.143 271.901 207.048 261.125 215.097C260.489 215.573 259.843 216.038 259.201 216.514C256.839 215.677 254.834 213.874 253.479 211.429C251.902 208.58 251.326 204.829 250.662 201.674C250.496 200.879 250.395 200.097 250.308 199.326C251.361 196.697 251.961 193.886 252.062 191.055C250.638 191.437 249.144 191.549 247.678 191.406C247.383 191.375 247.011 191.281 246.622 191.18C245.983 190.798 245.299 190.493 244.646 190.104C241.922 188.499 241.85 184.997 242.159 182.187C239.553 181.638 237.243 179.543 236.913 176.792C236.66 174.694 237.483 172.822 237.487 170.849C237.525 170.633 237.566 170.418 237.601 170.206C237.955 168.08 238.226 165.801 237.299 163.856C236.052 161.237 233.11 160.108 230.459 159.504C228.9 159.149 226.749 158.444 224.846 158.441C224.519 158.274 224.2 158.104 223.904 157.899C221.428 156.179 219.145 153.584 219.646 150.354Z" fill="#EBF2E5"/>
<path d="M341.284 10.2085C340.943 10.2676 340.603 10.3092 340.259 10.3683C332.853 11.7057 325.534 13.5328 318.357 15.8151C311.17 18.0765 304.164 20.8658 297.268 23.8845C290.394 26.9483 283.641 30.3525 277.284 34.4376C274.106 36.4767 271.066 38.7381 268.18 41.1801C265.289 43.6186 262.559 46.2656 260.166 49.2043C255.254 55.0124 252.121 62.189 250.564 69.5637C249.025 76.9835 248.855 84.5805 249.217 92.0872C249.449 96.7038 249.873 101.299 250.297 105.895C247.903 106.25 245.59 106.923 243.499 108.108C240.942 109.56 237.597 109.407 234.783 108.271C233.599 104.537 232.025 99.4306 231.431 97.2005C223.633 67.879 236.003 32.5757 261.552 15.6483C277.26 5.24111 296.066 1.10046 314.533 0.242451C316.603 0.145187 328.525 -0.445343 331.912 0.67319C332.381 0.829507 332.846 1.04835 333.315 1.30193C336.007 2.77826 338.685 5.8907 341.287 10.2085H341.284Z" fill="#EBF2E5"/>
<path d="M313.124 176.683C315.152 168.909 314.235 160.846 312.922 152.836C315.402 159.231 319.147 164.924 323.826 169.642C323.774 173.477 323.753 177.999 321.926 181.324C320.175 184.513 311.376 190.897 301.053 197.393C306.301 191.116 311.081 184.509 313.12 176.683H313.124Z" fill="#A1A8C3"/>
<path d="M237.296 163.856C238.223 165.802 237.952 168.081 237.598 170.206C237.563 170.418 237.522 170.634 237.483 170.849C237.483 170.272 237.424 169.685 237.237 169.081C236.455 166.587 235.09 164.207 233.315 162.286C231.259 160.06 227.576 159.83 224.843 158.438C226.746 158.441 228.896 159.146 230.456 159.5C233.107 160.105 236.049 161.237 237.296 163.853V163.856Z" fill="#C6CAD6"/>
<path d="M243.496 108.111C245.583 106.927 247.9 106.249 250.294 105.898C250.426 107.326 250.547 108.75 250.676 110.178C249.807 110.241 248.942 110.282 248.077 110.359C246.32 110.508 244.434 110.734 242.999 111.856C242.443 112.29 242.169 112.954 242.322 113.652C242.408 114.051 242.652 114.416 242.797 114.798C242.968 115.236 243.107 115.687 243.218 116.142C243.628 117.806 243.655 119.547 243.527 121.242C242.422 120.366 241.71 118.657 240.793 117.747C239.9 116.858 238.671 116.104 237.431 115.618C237.097 115.486 236.76 115.382 236.43 115.295C236.43 114.204 236.357 113.117 236.051 112.221C235.815 111.522 235.339 110.053 234.78 108.274C237.597 109.41 240.942 109.563 243.496 108.111Z" fill="#C6CAD6"/>
<path d="M256.793 105.62C261.131 105.815 265.894 106.252 270.069 107.503C271.514 107.937 273.029 108.531 274.432 109.08C274.821 109.233 278.667 111.755 278.392 111.914C276.655 112.915 274.79 113.679 272.862 114.221C272.97 114.124 273.057 114.016 273.043 113.887C273.025 113.71 272.845 113.599 272.685 113.509C269.837 111.963 266.71 111.001 263.518 110.48C260.117 109.92 256.654 109.848 253.215 109.997C252.402 110.032 251.589 110.108 250.776 110.167C250.686 108.736 250.596 107.301 250.498 105.87C252.572 105.582 254.698 105.526 256.789 105.62H256.793Z" fill="#C6CAD6"/>
<path d="M252.062 191.058C251.962 193.889 251.361 196.699 250.308 199.329C250.01 196.699 249.864 194.226 247.741 192.031C247.404 191.683 247.019 191.419 246.623 191.18C247.012 191.28 247.383 191.374 247.679 191.406C249.145 191.548 250.638 191.437 252.062 191.055V191.058Z" fill="#C6CAD6"/>
<path d="M407.497 128.017C403.644 101.113 378.71 82.4276 351.806 86.2799C324.902 90.1358 306.214 115.07 310.07 141.974C310.615 145.774 311.591 149.401 312.921 152.833C314.235 160.847 315.152 168.909 313.123 176.68C311.084 184.506 306.301 191.113 301.055 197.39C298.273 199.141 295.386 200.895 292.493 202.6C279.932 210.003 267.322 216.429 263.47 216.957C262.692 217.061 261.934 217.041 261.198 216.957C260.51 216.881 259.843 216.745 259.204 216.52C259.847 216.047 260.493 215.578 261.128 215.102C271.904 207.054 278.532 194.149 281.057 181.133C284.104 165.439 277.948 149.057 281.213 133.731C284.121 120.065 294.83 108.387 304.73 99.1848C316.85 87.9195 330.526 77.7589 338.964 63.5272C346.599 50.6467 349.135 34.9247 346.349 20.2344C347.36 22.5618 348.353 25.042 349.322 27.6403C349.43 27.9286 349.538 28.2169 349.645 28.5053C352.178 35.3867 354.55 43.067 356.697 51.0045C358.823 58.8655 360.727 66.9766 362.342 74.8132C362.453 75.3482 362.561 75.8866 362.672 76.4181C370.953 77.1684 378.779 79.8571 385.616 84.1019C385.932 84.2999 386.244 84.5049 386.557 84.7098C392.966 88.8783 398.448 94.4223 402.55 100.998C402.779 101.366 403.005 101.734 403.227 102.11C406.614 107.855 408.966 114.341 409.97 121.354C410.005 121.601 410.032 121.847 410.064 122.09C413.631 122.327 418.387 122.271 422.538 122.174C425.341 122.111 427.873 122.031 429.568 122.014C430.597 130.584 429.037 155.733 428.822 155.987L401.195 159.943C406.666 150.655 409.147 139.521 407.5 128.02L407.497 128.017Z" fill="#C6CAD6"/>
<path d="M351.802 86.2766C378.706 82.4243 403.64 101.109 407.493 128.013C409.143 139.515 406.659 150.648 401.188 159.937C398.958 163.723 396.231 167.2 393.077 170.271C385.872 177.288 376.469 182.172 365.756 183.707C349.732 186.003 334.409 180.299 323.821 169.632C319.142 164.914 315.398 159.224 312.918 152.826C311.587 149.394 310.607 145.767 310.066 141.967C306.213 115.063 324.898 90.129 351.802 86.2731V86.2766Z" fill="#EBF2E5"/>
<path d="M352.699 92.5251C367.459 90.4096 381.535 96.0822 390.785 106.416C388.715 112.471 385.613 118.185 381.722 123.292C380.097 120.113 377.846 117.348 375.15 115.128C369.752 110.686 362.596 108.417 355.135 109.487C352.39 109.88 349.816 110.703 347.454 111.86C346.815 112.047 346.179 112.252 345.561 112.502C337.596 115.729 332 123.524 330.148 131.917C328.804 138.003 329.262 144.342 330.85 150.4C326.706 150.703 322.558 150.543 318.529 149.824C317.507 147.045 316.754 144.124 316.319 141.077C312.957 117.619 329.252 95.8807 352.706 92.5216L352.699 92.5251Z" fill="#A064DA"/>
<path d="M330.842 150.402C329.255 144.343 328.796 138.004 330.14 131.918C331.995 123.526 337.588 115.731 345.553 112.503C346.172 112.253 346.804 112.048 347.446 111.861C337.682 116.641 331.648 127.305 333.274 138.65C333.52 140.38 333.941 142.04 334.503 143.624C338.516 154.956 350.08 162.271 362.435 160.503C376.521 158.485 386.307 145.431 384.289 131.341C383.875 128.451 382.972 125.756 381.718 123.289C385.609 118.183 388.711 112.469 390.781 106.414C396.231 112.507 400.004 120.212 401.251 128.91C404.61 152.368 388.318 174.106 364.864 177.465C344.456 180.387 325.35 168.43 318.517 149.825C322.547 150.544 326.695 150.704 330.839 150.402H330.842Z" fill="#008080"/>
<path d="M347.447 111.861C349.809 110.705 352.383 109.881 355.127 109.489C362.592 108.419 369.748 110.687 375.143 115.13C373.965 118.593 372.756 121.886 371.165 125.037C367.761 120.806 362.29 118.42 356.524 119.246C347.825 120.493 341.785 128.552 343.028 137.251C343.205 138.48 343.532 139.651 343.963 140.763C340.871 141.881 337.741 142.909 334.497 143.625C333.934 142.041 333.517 140.377 333.267 138.651C331.641 127.305 337.679 116.641 347.44 111.861H347.447Z" fill="#EBF2E5"/>
<path d="M246.285 180.857C246.539 180.853 251.367 180.43 251.367 180.43C251.367 180.43 248.324 181.177 246.865 181.468C246.136 181.614 245.406 181.767 244.677 181.92C243.989 182.062 242.485 182.305 242.429 182.323C242.808 181.833 245.9 180.871 246.285 180.86V180.857Z" fill="#A1A8C3"/>
<path d="M343.966 140.765C343.536 139.654 343.209 138.487 343.032 137.253C341.785 128.555 347.826 120.493 356.527 119.249C362.294 118.422 367.765 120.809 371.169 125.04C372.76 121.886 373.969 118.596 375.146 115.133C377.845 117.353 380.096 120.118 381.718 123.296C382.976 125.759 383.876 128.458 384.289 131.348C386.307 145.434 376.522 158.492 362.436 160.51C350.077 162.278 338.516 154.966 334.504 143.631C337.748 142.916 340.875 141.887 343.97 140.769L343.966 140.765Z" fill="#C6CAD6"/>
<path d="M353.435 147.391C361.237 148.524 370.029 144.942 372.645 137.137C372.968 136.175 373.204 135.195 373.374 134.202C373.638 132.642 373.718 131.048 373.694 129.453C374.079 130.495 374.371 131.593 374.534 132.739C375.781 141.437 369.74 149.5 361.042 150.743C355.519 151.535 350.256 149.378 346.828 145.477C348.975 146.335 351.16 147.058 353.438 147.391H353.435Z" fill="#EBF2E5"/>
<path d="M228.416 423.137C230.743 408.269 234.592 393.642 239.942 379.59C241.244 376.065 242.832 372.653 244.284 369.187C245.124 367.346 245.989 365.522 246.875 363.705C251.617 358.151 256.286 352.603 261.937 347.91C267.829 343.016 274.321 338.868 281.067 335.249C293.409 328.631 307.321 324.713 318.347 315.921C319.91 315.188 321.47 314.445 323.012 313.67C326.385 311.971 329.706 310.168 332.961 308.251C336.229 306.372 339.394 304.214 342.249 301.717C345.108 299.219 347.658 296.343 349.68 293.119C351.722 289.91 353.282 286.419 354.498 282.837C356.915 275.647 358.155 268.175 359.59 260.786C360.955 253.606 362.227 246.29 365.436 239.694C365.648 239.572 365.857 239.447 366.069 239.326C373.867 234.911 385.094 228.203 394.775 226.219C396.116 225.945 397.426 225.757 398.694 225.681C407.277 225.174 414.013 236.22 418.792 243.161C420.022 247.082 421.457 250.935 423.148 254.676C425.16 259.129 428.856 263.628 427.473 268.71C425.702 275.212 418.323 274.771 412.842 275.848C406.096 277.172 399.343 278.631 392.462 279.009C384.774 279.433 376.048 278.898 368.726 281.701C362.362 284.136 356.293 289.535 351.524 294.262C330.15 315.042 325.388 346.014 317.426 373.477C313.122 388.313 303.979 403.747 296.032 417.047C289.685 427.663 282.995 439.321 271.764 445.441C260.065 451.819 245.5 450.982 233.019 446.317C230.646 445.428 228.336 444.406 226.071 443.295C226.61 436.552 227.377 429.827 228.423 423.14L228.416 423.137Z" fill="#EBF2E5"/>
<path d="M224.593 464.281C222.752 463.562 221.335 463.166 220.47 463.19C220.338 463.194 220.185 463.222 220.022 463.256C218.549 462.381 217.072 461.502 215.575 460.651C215.565 459.126 215.537 457.598 215.558 456.073C215.652 450.032 216.016 444.002 216.621 437.992C219.483 439.788 222.415 441.466 225.434 442.98C224.888 450.07 224.61 457.177 224.589 464.285L224.593 464.281Z" fill="#C6CAD6"/>
<path d="M226.065 443.29C228.33 444.402 230.64 445.423 233.013 446.312C245.494 450.978 260.059 451.818 271.758 445.437C282.992 439.316 289.683 427.659 296.026 417.043C303.973 403.742 313.116 388.312 317.42 373.472C325.385 346.009 330.144 315.038 351.518 294.258C356.287 289.53 362.356 284.132 368.72 281.697C376.042 278.894 384.768 279.429 392.456 279.005C399.341 278.626 406.09 277.167 412.836 275.844C418.317 274.77 425.696 275.208 427.467 268.705C428.85 263.623 425.157 259.121 423.142 254.672C421.451 250.93 420.016 247.075 418.786 243.156C419.182 243.726 419.568 244.282 419.933 244.789C442.133 275.455 456.16 309.355 462.381 346.614C464.247 357.799 464.389 369.676 463.326 381.774C463.305 381.764 463.292 381.75 463.271 381.74C460.339 380.34 456.883 381.75 454.045 383.327C444.492 388.625 436.29 395.767 428.475 403.436C430.475 399.143 432.469 394.85 434.453 390.58C436.989 385.116 439.479 378.954 439.472 373.121C440.341 371.451 441.053 370.106 441.553 369.224C442.147 368.175 442.626 367.095 442.977 365.993C446.878 362.311 449.862 357.65 451.446 352.526C453.391 346.245 453.197 339.187 451.081 332.886C449.807 335.814 446.625 337.53 443.946 340.451C443.589 340.608 443.325 340.729 443.227 340.799C441.015 342.331 439.302 344.484 438.239 346.951C436.311 351.439 438.413 355.413 439.368 359.803C440.507 365.042 436.607 369.762 434.182 374.289C431.448 379.395 407.035 420.989 398.177 436.068C396.1 439.605 392.831 442.273 388.958 443.61C381.329 446.243 369.613 447.108 368.195 446.726C366.333 446.226 355.968 436.152 349.917 427.329C347.968 424.487 346.922 421.125 346.912 417.675C346.849 396.889 345.929 375.946 343.904 355.287C343.216 348.288 342.476 340.903 345.363 334.487C346.922 331.02 348.451 328.943 349.281 326.251C350.132 325.306 350.875 324.319 351.435 323.263C357.753 329.526 362.321 337.554 364.069 346.287C365.281 352.37 365.232 358.653 366.476 364.729C367.719 370.804 370.578 376.981 375.935 380.111C380.381 382.712 386.002 382.803 390.893 381.17C395.78 379.541 400.011 376.342 403.658 372.701C410.238 366.125 415.104 358.08 420.374 350.414C425.644 342.747 431.556 335.23 439.5 330.388C442.956 328.283 446.878 326.768 450.887 326.081C450.828 325.907 450.793 325.751 450.727 325.57C447.552 316.979 442.203 308.875 435.168 302.084C434.175 301.125 432.983 300.122 431.559 300.066C430.486 300.028 429.586 300.538 428.791 301.15C427.446 299.937 426.057 298.777 424.57 297.739C415.285 291.25 403.502 288.433 392.289 290.027C390.048 290.347 387.797 290.871 385.658 291.639C385.498 291.152 385.338 290.666 385.168 290.183C384.748 288.999 384.227 287.693 383 287.043C381.743 286.38 380.207 286.651 378.87 286.984C369.38 289.346 360.696 293.685 353.647 299.538C350.733 301.959 349.74 304.085 349.656 306.19C345.387 310.841 342.542 316.802 341.754 323.072C341.316 326.543 341.545 330.075 342.309 333.49C341.872 334.091 341.483 334.706 341.173 335.355C340.454 336.87 340.031 338.496 339.853 340.191C339.829 340.239 339.805 340.285 339.78 340.33C338.735 342.452 337.839 344.668 337.005 346.822C336.31 348.621 335.64 350.435 334.952 352.238C320.64 389.563 307.503 427.332 295.564 465.48C294.035 465.661 292.507 465.869 290.975 466.026C278.292 467.346 265.523 467.974 252.775 467.596C243.42 467.318 234.312 465.581 225.148 464.355C225.2 457.321 225.499 450.286 226.058 443.276L226.065 443.29Z" fill="#C6CAD6"/>
<path d="M254.938 349.368C257.05 346.279 259.311 343.289 261.868 340.565C264.445 337.87 267.234 335.372 270.336 333.309C273.47 331.311 276.808 329.606 280.369 328.501C283.905 327.428 287.66 326.813 291.325 325.847C294.986 324.892 298.599 323.766 302.17 322.53C307.679 320.619 313.073 318.393 318.354 315.93C307.325 324.722 271.545 378.203 259.203 384.824C252.457 388.44 267.835 343.021 261.944 347.919C256.292 352.612 251.624 358.16 246.882 363.714C247.646 362.151 248.421 360.598 249.223 359.056C250.995 355.745 252.867 352.49 254.941 349.371L254.938 349.368Z" fill="#C6CAD6"/>
<path d="M227.75 387.928C234.659 368.197 244.823 341.571 261.823 328.274C262.07 328.083 262.33 327.923 262.584 327.746C266.332 325.154 271.008 324.217 275.485 323.216C275.687 323.171 275.885 323.119 276.086 323.074C283.169 321.465 290.162 319.444 297.008 317.019C302.521 315.067 307.947 312.851 313.255 310.388C325.531 304.687 333.597 299.091 343.396 289.921C344.57 288.819 345.522 287.663 346.307 286.464C353.206 275.925 346.522 261.933 353.213 250.411C355.888 245.805 360.396 242.63 365.023 239.938C361.842 246.451 360.494 253.652 359.07 260.679C357.586 268.061 356.329 275.522 353.901 282.626C351.532 289.723 347.512 296.33 341.774 301.165C338.946 303.614 335.844 305.712 332.576 307.577C329.328 309.471 326.014 311.249 322.651 312.93C315.916 316.265 308.979 319.218 301.871 321.653C298.947 322.653 295.99 323.55 293.014 324.366C292.371 324.54 291.735 324.738 291.089 324.904C289.912 325.21 288.724 325.478 287.529 325.735C285.052 326.276 282.554 326.787 280.067 327.527C276.413 328.646 272.977 330.379 269.757 332.414C266.565 334.516 263.702 337.062 261.066 339.8C255.88 345.389 251.836 351.885 248.324 358.568C246.594 361.931 244.962 365.342 243.409 368.777C241.964 372.268 240.383 375.704 239.088 379.254C233.769 393.395 229.966 408.096 227.697 423.019C226.694 429.637 225.954 436.296 225.44 442.969C222.421 441.458 219.489 439.776 216.627 437.98C218.346 420.931 222.091 404.091 227.756 387.921L227.75 387.928Z" fill="#EBF2E5"/>
<path d="M225.151 464.51V464.375C234.315 465.601 243.423 467.338 252.777 467.616C265.529 467.995 278.295 467.362 290.978 466.046C292.51 465.886 294.038 465.681 295.566 465.501C291.982 476.957 288.508 488.444 285.138 499.97C264.786 486.548 236.955 469.332 225.147 464.514L225.151 464.51Z" fill="#A1A8C3"/>
<path d="M224.591 464.277C224.612 457.17 224.89 450.063 225.435 442.973C225.949 436.3 226.689 429.644 227.693 423.024C229.965 408.101 233.765 393.4 239.083 379.258C240.379 375.708 241.96 372.273 243.405 368.782C244.957 365.343 246.59 361.935 248.32 358.572C251.832 351.886 255.872 345.393 261.062 339.804C263.702 337.067 266.564 334.521 269.753 332.419C272.973 330.383 276.408 328.65 280.063 327.531C282.546 326.792 285.044 326.281 287.524 325.739C288.716 325.478 289.907 325.211 291.085 324.909C291.731 324.742 292.367 324.544 293.009 324.37C295.986 323.554 298.946 322.658 301.867 321.657C308.978 319.222 315.911 316.273 322.647 312.935C326.009 311.257 329.323 309.479 332.571 307.582C335.84 305.717 338.942 303.618 341.77 301.169C347.508 296.334 351.524 289.727 353.896 282.63C356.324 275.523 357.582 268.065 359.065 260.683C360.489 253.656 361.834 246.452 365.019 239.942C365.158 239.859 365.301 239.775 365.439 239.695C362.23 246.288 360.958 253.607 359.593 260.788C358.162 268.176 356.922 275.652 354.501 282.839C353.285 286.424 351.725 289.911 349.683 293.121C347.661 296.344 345.111 299.224 342.252 301.718C339.397 304.216 336.233 306.37 332.964 308.252C329.709 310.17 326.385 311.969 323.015 313.671C321.473 314.442 319.913 315.189 318.35 315.922C313.07 318.385 307.675 320.612 302.166 322.522C298.595 323.759 294.982 324.884 291.321 325.84C287.656 326.809 283.901 327.424 280.365 328.494C276.804 329.598 273.466 331.304 270.333 333.301C267.231 335.365 264.441 337.862 261.864 340.558C259.307 343.281 257.049 346.272 254.934 349.36C252.86 352.48 250.988 355.734 249.216 359.045C248.414 360.587 247.639 362.14 246.875 363.703C245.989 365.52 245.121 367.344 244.284 369.185C242.835 372.651 241.248 376.063 239.941 379.588C234.592 393.639 230.743 408.267 228.416 423.135C227.37 429.825 226.599 436.55 226.064 443.289C225.505 450.299 225.206 457.333 225.154 464.368V464.503C224.97 464.43 224.768 464.343 224.591 464.274V464.277Z" fill="#A064DA"/>
<path d="M342.315 333.511C341.551 330.1 341.322 326.563 341.76 323.093C342.548 316.823 345.397 310.862 349.662 306.211C349.506 310.119 352.528 313.94 352.49 319.38C352.479 320.807 352.077 322.086 351.448 323.277C350.888 324.333 350.145 325.32 349.294 326.265C347.071 328.731 344.195 330.94 342.315 333.511Z" fill="#A064DA"/>
<path d="M331.888 395.053C330.602 406.03 329.303 417.007 328.035 427.987C326.674 439.78 333.35 446.005 336.445 457.055C339.38 467.525 337.077 478.773 333.364 488.992C328.928 501.199 323.742 513.058 318.42 524.848C314.727 521.27 310.684 518.057 307.044 515.16C303.553 512.381 295.271 506.642 285.142 499.962C288.511 488.44 291.985 476.949 295.57 465.493C307.509 427.345 320.65 389.575 334.958 352.25C334.5 356.537 334.066 360.82 333.687 365.113C332.794 375.124 333.055 385.056 331.884 395.053H331.888Z" fill="#A064DA"/>
<path d="M330.305 544.822C330.155 544.103 330.037 543.377 329.87 542.665C328.286 535.853 323.718 529.975 318.424 524.848C323.746 513.058 328.936 501.199 333.368 488.992C337.082 478.773 339.385 467.525 336.45 457.055C333.351 446.009 326.678 439.78 328.04 427.987C329.304 417.007 330.603 406.03 331.892 395.053C333.063 385.059 332.802 375.128 333.695 365.113C334.074 360.82 334.508 356.536 334.966 352.25C335.658 350.447 336.324 348.637 337.019 346.834C337.853 344.681 338.749 342.465 339.795 340.342C339.819 340.293 339.843 340.252 339.868 340.203C339.809 340.773 339.777 341.349 339.774 341.937C339.687 353.507 335.439 426.348 341.914 438.547C343.338 447.825 346.242 456.895 349.399 465.771C351.022 470.328 353.102 475.299 357.497 477.321C360.484 478.696 363.951 478.391 367.195 477.873C377.21 476.268 386.902 472.781 395.711 467.758C390.657 476.352 385.602 484.945 380.548 493.539C374.299 504.166 368.053 514.792 361.804 525.418C356.531 534.376 351.407 543.446 345.863 552.242C343.699 555.674 337.033 565.716 331.857 572.538C332.663 563.278 332.18 553.878 330.308 544.822H330.305Z" fill="#20325F"/>
<path d="M357.493 477.322C353.099 475.301 351.018 470.33 349.396 465.772C346.239 456.9 343.335 447.827 341.91 438.549C342.129 438.959 342.358 439.306 342.602 439.577C346.464 443.85 350.424 449.651 355.944 453.989C360.516 457.581 366.581 459.21 372.337 458.384C379.284 457.387 386.172 455.309 391.654 453.541C401.342 450.418 430.142 391.14 439.49 373.125C439.497 378.957 437.007 385.12 434.471 390.584C432.487 394.853 430.493 399.147 428.492 403.44C418.367 425.165 407.883 447.042 395.84 467.537C395.798 467.61 395.756 467.679 395.715 467.752C386.905 472.775 377.214 476.263 367.199 477.868C363.954 478.389 360.488 478.691 357.5 477.315L357.493 477.322Z" fill="#008080"/>
<path d="M203.077 473.995C199.763 472.407 196.456 470.827 193.145 469.243C184.072 464.897 173.099 461.274 165.04 454.962C165.384 454.226 165.721 453.465 166.057 452.683C168.128 447.824 169.84 442.231 169.184 437.906C184.895 444.868 200.753 452.204 215.575 460.652C217.072 461.503 218.545 462.382 220.021 463.257C217.249 463.827 210.264 468.683 203.077 473.995Z" fill="#A064DA"/>
<path d="M185.402 487.085C176.273 480.37 166.922 473.965 157.366 467.875C159.259 465.406 160.978 462.8 162.462 460.059C163.219 458.66 164.129 456.902 165.039 454.953C173.095 461.265 184.072 464.888 193.145 469.234C196.455 470.818 199.762 472.402 203.076 473.986C196.184 479.075 189.122 484.563 185.402 487.081V487.085Z" fill="#20325F"/>
<path d="M152.576 473.395C154.292 471.665 155.883 469.81 157.366 467.875C166.922 473.964 176.273 480.37 185.402 487.085C184.708 487.554 184.121 487.932 183.686 488.172C178.181 491.211 171.497 490.933 165.369 491.496C165.269 491.507 165.165 491.521 165.064 491.531C160.829 487.79 156.685 483.941 152.652 479.984C151.714 479.064 150.787 478.14 149.859 477.212C149.672 477.021 149.467 476.83 149.262 476.636C150.377 475.632 151.436 474.551 152.43 473.554C152.479 473.506 152.527 473.45 152.576 473.398V473.395Z" fill="#008080"/>
<path d="M47.1214 434.185C40.108 433.431 32.8966 433.605 26.1958 431.406C22.6074 430.229 20.1758 427.484 17.9353 424.424C18.3105 424.014 18.6092 423.58 18.5571 423.233C18.4529 422.503 16.9592 421.329 16.459 420.801C14.9028 419.144 10.4043 413.895 8.64314 412.45C6.18028 410.436 3.42565 408.48 0.497314 406.875C5.4404 408.066 10.4494 409.991 14.4025 412.843C17.3309 414.958 19.7625 417.47 22.2218 419.981C23.7572 421.548 25.3065 423.111 26.9947 424.577C30.2044 427.359 34.2443 428.975 38.2426 430.402C43.276 432.205 48.3893 433.775 53.5547 435.154C53.4366 435.172 53.3254 435.193 53.2073 435.21C51.196 434.738 49.1431 434.401 47.1179 434.185H47.1214Z" fill="#008080"/>
<path d="M10.528 431.266C10.4551 431.141 10.2536 430.988 9.9896 430.828C11.2749 429.876 12.5775 428.942 13.8246 427.945C14.8007 427.16 15.7629 426.365 16.7147 425.552C16.9891 425.316 17.5136 424.888 17.9374 424.43C20.178 427.49 22.6096 430.231 26.1979 431.412C32.8987 433.614 40.1101 433.441 47.1235 434.191C49.1487 434.406 51.2016 434.747 53.2129 435.216C53.0531 435.243 52.8934 435.257 52.7336 435.295C50.9411 435.691 49.2043 436.817 47.6376 437.949C45.8 437.71 43.952 437.585 42.1283 437.543C35.0767 437.387 27.9035 438.165 21.0429 436.536C17.3191 435.653 13.9323 433.986 10.5662 432.294C10.5871 431.728 10.5836 431.346 10.5315 431.262L10.528 431.266Z" fill="#20325F"/>
<path d="M8.03176 448.489C8.51114 447.905 9.1121 444.73 9.60884 441.26C9.75473 440.246 9.89018 439.207 10.0118 438.203C11.0226 443.299 16.9384 445.588 21.7251 446.592C24.5562 447.186 28.0403 448.145 30.8471 447.488C34.9113 446.533 38.9964 444.758 42.9043 443.032C42.4076 443.893 41.9421 444.768 41.5079 445.644C40.9382 446.79 40.4241 447.94 40.0107 449.1C39.8579 449.19 39.6981 449.277 39.5487 449.371C38.583 449.965 37.9091 450.955 37.7667 452.081C37.3741 455.186 38.5969 458.285 40.6811 460.852C39.3194 460.546 37.9855 460.213 36.7037 459.872C36.9156 458.868 36.5891 457.743 35.9534 456.906C35.1301 455.822 33.9178 455.124 32.7368 454.45C30.3295 453.078 27.9222 451.709 25.5149 450.337C22.59 448.669 19.5297 446.964 16.1672 446.752C14.4338 446.644 12.5684 447.019 11.0643 447.912C10.4703 448.266 8.57365 449.736 8.1047 450.799C7.39259 450.5 6.68395 450.184 5.97532 449.871C6.677 449.711 7.35786 449.305 8.03176 448.485V448.489Z" fill="#008080"/>
<path d="M92.0312 437.582C90.9961 437.745 89.9853 437.697 88.7625 437.2C86.7756 436.394 85.0318 435.025 82.9823 434.393C80.1616 433.521 77.1186 434.14 74.232 434.765C70.932 435.477 67.6354 436.189 64.3319 436.901C61.4383 437.526 58.3433 437.87 55.7241 439.34C52.6047 441.09 49.4853 442.845 46.3694 444.595C44.5805 445.599 42.7707 446.624 41.3082 448.062C41.1276 448.236 40.9782 448.441 40.815 448.625C40.5475 448.785 40.2696 448.938 40.0021 449.101C40.4155 447.941 40.9296 446.794 41.4993 445.645C41.9335 444.769 42.399 443.89 42.8957 443.032C38.9878 444.755 34.9027 446.53 30.8385 447.489C28.0317 448.146 24.5476 447.187 21.7165 446.593C16.9298 445.589 11.0141 443.3 10.0032 438.204C10.2985 435.772 10.5069 433.546 10.559 432.295C13.9285 433.987 17.3154 435.651 21.0357 436.536C27.8963 438.166 35.0695 437.388 42.1211 437.544C43.9448 437.586 45.7962 437.711 47.6304 437.95C49.197 436.818 50.9339 435.692 52.7263 435.296C52.8861 435.258 53.0459 435.244 53.2057 435.216C53.3203 435.196 53.4349 435.175 53.5531 435.161C55.1197 434.921 56.7245 434.939 58.3155 434.925C62.4909 434.88 66.6663 434.445 70.7652 433.636C72.7348 433.247 74.7843 432.396 76.7643 432.187C78.4734 432.007 80.2554 432.26 81.9958 432.038C84.8998 431.663 87.7656 431.104 90.6105 430.43C90.9718 432.903 91.3852 435.296 92.0278 437.589L92.0312 437.582Z" fill="#A064DA"/>
<path d="M55.6594 441.53C50.4558 443.395 45.4433 445.865 40.8163 448.623C40.983 448.436 41.1324 448.234 41.3096 448.061C42.772 446.623 44.5818 445.598 46.3707 444.594C49.4867 442.843 52.6061 441.089 55.7254 439.338C58.3446 437.869 61.4397 437.525 64.3333 436.9C67.6333 436.188 70.9333 435.475 74.2333 434.763C77.12 434.141 80.163 433.52 82.9836 434.392C85.0331 435.024 86.7734 436.392 88.7639 437.198C89.9831 437.695 90.9974 437.744 92.0326 437.58C93.0816 441.315 94.7455 444.775 97.851 447.863C99.5393 449.544 101.512 450.947 103.635 452.052C100.97 450.902 98.4867 449.335 96.1246 447.658C92.9358 445.393 90.2158 442.326 86.822 440.401C85.8216 439.831 84.7691 439.383 83.6818 439.032C80.3888 437.966 76.7865 437.792 73.2989 437.914C68.2829 438.088 63.2043 439.119 58.2439 440.689C57.3824 440.96 56.5174 441.217 55.6629 441.527L55.6594 441.53Z" fill="#008080"/>
<path d="M166.058 452.678C163.24 453.932 159.576 452.953 157.304 450.74C156.355 449.816 155.397 448.586 154.737 447.436C153.934 446.037 154.476 444.477 154.594 442.959C154.73 441.118 154.775 439.273 154.723 437.432C154.657 434.997 154.41 432.569 154.018 430.169C153.979 428.616 153.854 427.067 153.636 425.531C157.012 427.563 160.336 429.696 163.827 431.527C165.717 432.52 167.735 433.649 168.576 435.608C168.882 436.317 169.066 437.092 169.191 437.901C169.844 442.226 168.135 447.815 166.064 452.678H166.058Z" fill="#EBF2E5"/>
<path d="M11.0598 447.913C12.5639 447.02 14.4293 446.645 16.1627 446.752C19.5253 446.964 22.5856 448.67 25.5104 450.337C27.9177 451.709 30.325 453.078 32.7323 454.45C33.9099 455.121 35.1257 455.822 35.9489 456.906C36.5846 457.743 36.9112 458.869 36.6993 459.873C36.6367 460.164 36.5429 460.449 36.3797 460.71C30.8183 459.268 25.2881 457.701 19.7962 456.01C16.0272 454.85 12.3972 453.606 8.78109 452.043C8.48235 451.914 8.16275 451.761 8.02381 451.47C7.93696 451.286 7.99254 451.049 8.10369 450.803C8.57265 449.74 10.4658 448.27 11.0633 447.916L11.0598 447.913Z" fill="#C6CAD6"/>
<path d="M115.045 418.081C114.976 418.029 114.927 417.977 114.854 417.925C111.964 415.934 108.886 414.788 106.253 412.342C103.554 409.831 101.279 406.91 98.6599 404.329C97.5552 403.238 96.3464 402.203 94.9048 401.633C94.9291 401.602 94.95 401.564 94.9743 401.529C96.3638 399.528 99.2434 397.138 102.002 396.759C102.537 396.687 103.061 396.662 103.575 396.759C107.716 397.538 111.28 402.856 114.337 405.478C116.428 407.274 118.404 409.654 118.318 412.412C118.311 412.69 118.252 412.954 118.203 413.221C117.863 415.132 116.602 416.719 115.045 418.078V418.081Z" fill="#EBF2E5"/>
<path d="M89.1867 399.469C88.6934 399.997 88.1724 400.494 87.6374 400.977C87.5124 400.171 87.0469 399.396 86.043 398.698C83.3647 396.836 78.9253 396.256 75.8824 394.925C72.3948 393.4 69.0218 391.618 65.7948 389.6C62.9568 387.825 60.2368 385.859 57.6559 383.73C57.7462 383.438 57.8434 383.146 57.9581 382.858C58.5521 381.357 59.695 379.988 61.2407 379.519C62.988 378.995 64.843 379.693 66.5312 380.381C67.1252 380.621 67.7157 380.864 68.3063 381.103C72.8672 382.958 77.4213 384.848 81.9961 386.675C86.0986 388.311 90.135 389.284 93.9283 391.771C94.0464 391.848 94.036 392.056 93.9491 392.337C93.6851 393.202 92.6118 394.856 91.5419 396.367C90.4789 397.864 89.4264 399.212 89.1867 399.465V399.469Z" fill="#EBF2E5"/>
<path d="M160.242 493.277C161.43 491.992 163.299 491.7 165.064 491.526C165.165 491.519 165.269 491.502 165.37 491.491C171.497 490.932 178.181 491.207 183.687 488.167C184.121 487.927 184.711 487.549 185.403 487.08C189.119 484.561 196.181 479.073 203.077 473.984C210.267 468.673 217.249 463.816 220.021 463.247C220.181 463.212 220.338 463.184 220.47 463.181C221.335 463.156 222.752 463.552 224.593 464.271C224.77 464.341 224.972 464.428 225.156 464.501C236.963 469.315 264.794 486.534 285.147 499.957C295.276 506.637 303.557 512.375 307.048 515.154C310.689 518.048 314.732 521.265 318.425 524.842C323.719 529.97 328.286 535.847 329.87 542.659C330.037 543.371 330.155 544.097 330.305 544.816C294.251 537.515 261.202 519.302 228.952 501.339C218.483 495.507 207.19 489.487 195.25 490.543C187.383 491.238 180.133 494.969 172.484 496.928C168.843 497.859 163.765 497.532 160.263 499.467C159.774 498.904 159.468 498.467 159.381 498.178C158.898 496.511 159.061 494.548 160.239 493.277H160.242Z" fill="#EBF2E5"/>
<path d="M187.014 503.913C189.32 503.753 191.602 503.875 193.899 503.84C196.181 504.014 198.473 504.198 200.742 504.531C209.815 505.983 218.503 509.259 226.729 513.33C234.965 517.422 242.763 522.355 250.506 527.35C258.27 532.307 265.988 537.413 273.971 542.037C277.893 544.406 281.662 547.06 284.965 550.231C287.022 552.191 288.89 554.341 290.582 556.626C292.316 559.781 293.67 563.143 294.573 566.627C295.418 569.882 297.387 575.937 294.688 578.615C291.749 581.526 288.88 579.782 285.65 578.799C281.79 577.622 278.059 576.069 274.433 574.304C267.194 570.782 260.406 566.426 253.591 562.164C240.686 554.098 227.527 546.438 214.147 539.188C210.329 537.122 206.491 535.096 202.638 533.096C187.764 522.171 174.338 511.885 166.508 505.257C168.745 505.111 170.979 504.959 173.213 504.809C177.812 504.483 182.411 504.153 187.01 503.916L187.014 503.913Z" fill="#C6CAD6"/>
<path d="M172.483 496.928C180.136 494.969 187.382 491.241 195.25 490.543C207.185 489.487 218.482 495.507 228.952 501.34C261.201 519.302 294.25 537.515 330.304 544.816C332.176 553.872 332.656 563.272 331.853 572.533C331.829 572.825 331.811 573.117 331.784 573.408C324.805 576.403 317.653 578.994 310.163 580.29C308.461 580.585 304.4 581.825 302.799 580.978C302.427 580.783 302.101 580.377 301.806 579.866C301.125 577.664 300.44 575.465 299.714 573.27C298.245 568.886 296.425 564.596 294.094 560.577C291.794 556.54 288.876 552.862 285.535 549.628C282.2 546.383 278.396 543.663 274.447 541.242C266.495 536.566 258.85 531.436 251.1 526.413C243.319 521.456 235.454 516.561 227.135 512.497C218.826 508.454 210.034 505.202 200.849 503.799C198.557 503.476 196.233 503.302 193.926 503.146C191.609 503.194 189.278 503.09 186.979 503.264C182.373 503.538 177.77 503.889 173.171 504.261C170.802 504.466 168.433 504.671 166.064 504.876C163.326 502.545 161.332 500.697 160.259 499.464C163.764 497.529 168.839 497.855 172.48 496.924L172.483 496.928Z" fill="#C6CAD6"/>
<path d="M214.147 539.191C227.527 546.441 240.686 554.1 253.591 562.166C260.406 566.428 267.194 570.781 274.433 574.307C278.056 576.068 281.79 577.624 285.649 578.802C288.88 579.788 291.749 581.528 294.688 578.617C297.387 575.943 295.417 569.885 294.573 566.63C293.67 563.146 292.315 559.783 290.582 556.629C291.614 558.022 292.593 559.45 293.462 560.954C294.021 561.906 294.549 562.875 295.053 563.854C296.088 565.866 297.008 567.932 297.839 570.041C298.287 571.18 298.711 572.327 299.107 573.487C300.59 577.836 301.889 582.275 303.369 586.645C304.696 590.525 306.127 594.409 307.773 598.185C304.706 596.896 301.663 595.524 298.648 594.089C292.263 591.05 285.976 587.753 279.741 584.436C277.233 583.102 274.732 581.768 272.237 580.448C270.56 579.562 268.493 578.364 266.117 576.919C251.635 568.106 225.454 549.862 202.638 533.102C206.491 535.102 210.329 537.128 214.147 539.194V539.191Z" fill="#A1A8C3"/>
<path d="M186.978 503.274C189.278 503.101 191.609 503.201 193.926 503.156C196.232 503.316 198.556 503.486 200.849 503.809C210.033 505.213 218.825 508.464 227.134 512.507C235.454 516.572 243.318 521.466 251.1 526.423C258.846 531.446 266.492 536.577 274.446 541.252C278.396 543.674 282.2 546.39 285.534 549.638C288.876 552.868 291.794 556.547 294.094 560.587C296.424 564.606 298.245 568.896 299.714 573.28C300.44 575.475 301.124 577.674 301.805 579.877C302.486 582.082 303.163 584.288 303.879 586.477C305.161 590.471 306.543 594.466 308.162 598.35C308.034 598.294 307.902 598.239 307.773 598.183C306.127 594.407 304.695 590.523 303.368 586.643C301.889 582.273 300.589 577.834 299.106 573.485C298.71 572.325 298.286 571.178 297.838 570.039C297.008 567.93 296.088 565.864 295.052 563.852C294.549 562.873 294.021 561.904 293.461 560.952C292.593 559.448 291.613 558.016 290.582 556.627C288.89 554.341 287.021 552.191 284.965 550.232C281.661 547.06 277.892 544.407 273.97 542.037C265.984 537.414 258.266 532.308 250.506 527.351C242.763 522.355 234.968 517.426 226.728 513.331C218.502 509.26 209.815 505.984 200.741 504.532C198.476 504.198 196.184 504.011 193.898 503.841C191.602 503.875 189.32 503.754 187.013 503.914C182.414 504.15 177.815 504.48 173.216 504.806C170.979 504.956 168.745 505.108 166.511 505.254C166.365 505.129 166.213 505.001 166.07 504.879C168.439 504.678 170.808 504.469 173.177 504.264C177.777 503.893 182.376 503.542 186.985 503.267L186.978 503.274Z" fill="#A064DA"/>
<path d="M114.73 471.469C110.683 471.493 106.605 471.379 102.561 471.542C99.4904 471.667 97.5938 472.195 94.6272 471.007C89.8474 469.096 84.9807 467.401 80.0203 466.029C75.5496 464.792 70.7212 464.306 66.0872 464.146C62.2662 464.011 58.7786 464.81 55.0791 464.879C51.9875 464.938 48.7951 464.546 45.9675 463.236C42.9593 461.847 42.0874 460.006 40.9793 456.931C40.4061 455.344 40.2012 453.468 41.1322 452.061C41.7401 451.144 42.737 450.571 43.6958 450.033C46.374 448.525 48.7743 447.365 51.1642 445.42C52.7031 444.172 54.1967 442.866 55.6627 441.532C56.5172 441.227 57.3822 440.97 58.2436 440.695C58.8654 443.412 58.796 446.646 60.7239 448.949C64.0482 452.926 69.2483 454.823 74.3338 455.802C79.4228 456.789 84.6646 457.036 89.6251 458.533C95.1031 460.186 100.029 463.302 105.396 465.286C110.763 467.269 117.106 467.992 121.962 464.963C126.749 461.982 128.885 457.654 131.355 452.822C132.911 449.779 135.481 446.729 138.896 446.639C140.24 446.601 141.547 447.038 142.884 447.163C145.632 447.417 149.032 446.125 150.971 443.978C150.279 446.132 149.48 448.251 148.48 450.279C145.955 455.608 142.443 460.433 138.424 464.765C137.041 466.244 135.575 467.648 134.075 469.02C133.651 469.336 133.321 469.576 133.199 469.649C128.19 472.699 120.308 471.434 114.73 471.472V471.469Z" fill="#C6CAD6"/>
<path d="M157.366 467.875C155.883 469.81 154.292 471.662 152.576 473.395C152.34 473.506 152.124 473.649 151.874 473.736C149.179 474.701 146.111 473.944 143.687 472.419C141.321 470.936 139.456 468.796 137.635 466.674C138.101 466.229 138.584 465.805 139.035 465.347C143.242 461.084 146.809 456.155 149.474 450.761C152.055 445.324 153.67 439.408 153.983 433.402C154.035 432.326 154.035 431.249 154.007 430.172C154.4 432.572 154.646 435 154.712 437.435C154.764 439.276 154.719 441.121 154.584 442.962C154.466 444.48 153.927 446.04 154.726 447.44C155.386 448.589 156.345 449.816 157.293 450.743C159.565 452.956 163.23 453.936 166.047 452.682C165.713 453.463 165.373 454.227 165.029 454.96C164.119 456.909 163.209 458.667 162.452 460.067C160.968 462.804 159.252 465.413 157.356 467.882L157.366 467.875Z" fill="#C6CAD6"/>
<path d="M137.638 466.672C139.458 468.794 141.323 470.934 143.689 472.417C146.114 473.939 149.181 474.696 151.876 473.734C152.123 473.647 152.342 473.505 152.578 473.394C152.529 473.446 152.481 473.498 152.432 473.55C151.439 474.547 150.379 475.624 149.264 476.631C148.16 477.628 146.996 478.559 145.784 479.268C142.65 481.109 141.584 480.011 138.447 478.239C135.217 476.412 131.715 474.79 128.082 474.3C131.479 472.053 134.682 469.503 137.638 466.672Z" fill="#A1A8C3"/>
<path d="M37.7623 452.081C37.9047 450.952 38.5786 449.965 39.5443 449.371C39.6936 449.278 39.8535 449.191 40.0063 449.1C40.2738 448.937 40.5482 448.784 40.8191 448.625C45.4461 445.866 50.4552 443.397 55.6623 441.531C54.1964 442.865 52.7027 444.171 51.1638 445.418C48.7739 447.364 46.3736 448.524 43.6954 450.031C42.7366 450.57 41.7397 451.143 41.1318 452.06C40.2008 453.467 40.4058 455.343 40.9789 456.93C42.087 460.001 42.9589 461.846 45.9671 463.235C48.7947 464.545 51.9906 464.934 55.0787 464.878C58.7782 464.809 62.2658 464.01 66.0869 464.145C70.7243 464.305 75.5492 464.791 80.0199 466.028C84.9769 467.403 89.847 469.095 94.6268 471.006C97.5934 472.194 99.49 471.662 102.561 471.541C106.604 471.377 110.682 471.492 114.729 471.468C120.308 471.433 128.19 472.697 133.199 469.644C133.324 469.571 133.65 469.331 134.074 469.015C132.046 470.867 129.923 472.621 127.717 474.271C126.637 474.149 125.546 474.115 124.452 474.222C118.72 474.785 113.298 476.789 107.462 476.748C94.0884 476.643 81.5344 470.241 68.2405 468.779C61.4112 468.029 54.3041 468.56 47.8881 466.104C45.1335 465.052 42.556 463.166 40.6767 460.849C38.5925 458.281 37.3697 455.183 37.7623 452.077V452.081Z" fill="#A1A8C3"/>
<path d="M154.011 430.169C154.039 431.246 154.039 432.322 153.986 433.399C153.674 439.405 152.059 445.321 149.478 450.757C146.817 456.156 143.246 461.081 139.039 465.344C138.588 465.802 138.101 466.226 137.639 466.67C134.687 469.502 131.48 472.048 128.083 474.299C127.965 474.285 127.84 474.285 127.718 474.267C129.928 472.617 132.047 470.863 134.075 469.012C135.576 467.64 137.042 466.24 138.424 464.756C142.443 460.425 145.952 455.6 148.481 450.271C149.481 448.242 150.28 446.124 150.971 443.97C152.079 440.517 152.84 436.953 153.135 433.337C153.351 430.62 153.313 427.876 153.01 425.156C153.215 425.278 153.424 425.399 153.629 425.521C153.844 427.056 153.969 428.606 154.011 430.158V430.169Z" fill="#A064DA"/>
<path d="M86.8222 440.4C90.216 442.325 92.9359 445.392 96.1248 447.657C98.4869 449.335 100.971 450.901 103.635 452.051C104.771 452.541 105.935 452.961 107.147 453.274C115.112 455.316 124.154 452.253 129.24 445.791C131.96 442.339 133.467 438.007 133.696 433.633C133.728 433.074 133.728 432.536 133.71 432.008C133.884 433.172 134.006 434.342 134.061 435.523C134.276 440.188 133.377 445.027 130.772 448.911C127.954 453.111 123.317 455.893 118.405 457.105C115.48 457.828 112.396 458.137 109.391 457.87C106.146 457.585 104.18 456.442 101.561 454.74C97.2468 451.94 93.3354 448.515 90.0319 444.572C88.2395 442.432 86.0545 440.602 83.682 439.035C84.7658 439.386 85.8183 439.834 86.8222 440.404V440.4Z" fill="#A1A8C3"/>
<path d="M91.5397 396.365C92.6131 394.854 93.683 393.201 93.947 392.336C95.2809 392.833 96.5939 393.385 97.8688 394.052C99.4389 394.875 100.773 395.775 101.999 396.758C99.2374 397.133 96.3612 399.523 94.9717 401.527C94.9474 401.562 94.9266 401.597 94.9022 401.632C92.3803 405.303 91.036 409.402 93.4711 413.38C94.7425 415.453 96.4585 417.215 98.1571 418.958C99.9495 420.793 101.94 422.731 104.483 423.078C107.303 423.46 109.943 421.779 112.292 420.171C113.219 419.535 114.171 418.84 115.039 418.08C116.596 416.721 117.857 415.134 118.197 413.223C120.222 415.519 122.292 417.961 124.634 419.667C125.235 420.108 125.839 420.574 126.44 421.05C126.687 421.018 126.933 420.973 127.183 420.945C128.142 420.827 129.236 420.751 130.428 420.72C130.47 421.025 130.588 421.331 130.716 421.616C130.876 421.981 131.032 422.335 131.182 422.693L130.834 425.18C130.299 427.198 129.778 429.216 128.934 431.12C126.259 437.15 120.167 441.517 113.598 442.118C107.029 442.719 100.245 439.53 96.5175 434.086C92.9327 428.852 92.2344 422.172 89.3478 416.523C87.9687 413.817 86.0339 411.139 86.2215 408.114C86.4299 404.723 91.3799 400.242 91.5328 396.369L91.5397 396.365Z" fill="#A064DA"/>
<path d="M89.3544 416.525C92.2375 422.173 92.9392 428.853 96.5241 434.088C100.251 439.531 107.032 442.72 113.604 442.119C120.173 441.518 126.266 437.152 128.941 431.122C129.785 429.218 130.306 427.2 130.841 425.182L131.188 422.694C131.411 423.202 131.622 423.702 131.824 424.202C131.886 424.362 131.956 424.528 132.018 424.692C132.522 425.974 132.942 427.245 133.241 428.558C133.491 429.663 133.661 430.802 133.703 432.014C133.721 432.542 133.721 433.081 133.689 433.64C133.46 438.013 131.952 442.345 129.233 445.798C124.147 452.259 115.105 455.319 107.14 453.28C105.931 452.971 104.764 452.547 103.628 452.058C101.505 450.953 99.5323 449.55 97.8441 447.868C94.7386 444.78 93.0747 441.32 92.0257 437.586C91.383 435.293 90.9696 432.904 90.6084 430.427C90.466 429.451 90.3305 428.461 90.1915 427.46C89.3683 421.572 88.0587 415.441 84.189 410.925C82.1985 408.602 79.43 407.553 76.5607 406.774C76.4878 406.754 76.4218 406.726 76.3488 406.705C78.1552 406.413 80.0031 405.677 81.5281 404.982C83.7513 403.968 85.8112 402.606 87.6314 400.973C88.1698 400.494 88.6909 399.994 89.1807 399.466C89.4169 399.212 90.4694 397.864 91.5359 396.367C91.3796 400.24 86.4295 404.721 86.2246 408.112C86.037 411.137 87.9718 413.819 89.3509 416.522L89.3544 416.525Z" fill="#20325F"/>
<path d="M73.2993 437.913C76.7869 437.792 80.3926 437.965 83.6822 439.032C86.0513 440.598 88.2363 442.425 90.0322 444.569C93.3357 448.511 97.2471 451.936 101.561 454.736C104.181 456.438 106.143 457.581 109.391 457.866C112.396 458.134 115.481 457.824 118.405 457.102C123.314 455.89 127.951 453.107 130.772 448.907C133.377 445.027 134.277 440.188 134.061 435.52C134.006 434.339 133.884 433.168 133.711 432.004C133.669 430.792 133.499 429.653 133.249 428.548C132.95 427.231 132.529 425.96 132.026 424.682C131.963 424.519 131.894 424.355 131.831 424.192C131.626 423.695 131.414 423.192 131.196 422.684C131.043 422.33 130.89 421.972 130.73 421.608C130.602 421.323 130.483 421.017 130.442 420.711C130.411 420.51 130.407 420.308 130.473 420.114C130.668 419.544 131.293 419.263 131.863 419.072C135.618 417.849 138.959 418.481 142.266 419.742C143.722 420.298 145.174 420.975 146.647 421.674C148.842 422.709 150.94 423.914 153.021 425.158C153.32 427.878 153.361 430.622 153.146 433.338C152.851 436.954 152.09 440.518 150.982 443.971C149.047 446.118 145.643 447.41 142.895 447.157C141.558 447.032 140.252 446.594 138.907 446.632C135.493 446.726 132.922 449.772 131.366 452.815C128.896 457.647 126.756 461.975 121.973 464.956C117.117 467.982 110.774 467.262 105.407 465.279C100.04 463.295 95.1142 460.18 89.6362 458.526C84.6723 457.029 79.4304 456.782 74.3449 455.796C69.2594 454.816 64.0593 452.916 60.7349 448.942C58.807 446.639 58.8765 443.405 58.2547 440.689C63.2152 439.119 68.2937 438.087 73.3098 437.913H73.2993Z" fill="#EBF2E5"/>
<path d="M349.666 306.204C349.753 304.103 350.743 301.973 353.657 299.552C360.705 293.699 369.389 289.36 378.88 286.998C380.217 286.665 381.752 286.39 383.01 287.057C384.236 287.707 384.761 289.01 385.177 290.198C385.348 290.68 385.507 291.167 385.667 291.653C388.696 300.907 390.013 310.713 401.751 314.232C414.298 317.206 420.335 308.369 428.123 301.713C428.342 301.529 428.568 301.341 428.8 301.161C429.599 300.549 430.499 300.039 431.569 300.077C432.99 300.132 434.184 301.136 435.178 302.095C442.212 308.886 447.562 316.99 450.737 325.581C450.806 325.761 450.837 325.918 450.896 326.091C446.888 326.779 442.966 328.294 439.51 330.399C431.565 335.238 425.653 342.758 420.383 350.425C415.114 358.091 410.247 366.136 403.668 372.712C400.021 376.352 395.79 379.552 390.902 381.181C386.015 382.813 380.394 382.72 375.944 380.121C370.588 376.992 367.729 370.815 366.485 364.74C365.242 358.664 365.29 352.377 364.078 346.298C362.334 337.565 357.763 329.537 351.444 323.274C352.073 322.083 352.476 320.804 352.486 319.377C352.525 313.937 349.502 310.116 349.659 306.208L349.666 306.204Z" fill="#EBF2E5"/>
<path d="M391.65 453.541C386.169 455.309 379.281 457.387 372.333 458.384C366.577 459.21 360.512 457.585 355.941 453.989C350.424 449.651 346.461 443.846 342.598 439.577C342.355 439.31 342.126 438.962 341.907 438.549C335.428 426.349 339.68 353.509 339.767 341.938C339.771 341.351 339.802 340.774 339.861 340.205C340.038 338.51 340.462 336.887 341.181 335.369C341.487 334.72 341.879 334.105 342.317 333.504C344.196 330.933 347.076 328.724 349.296 326.258C348.465 328.95 346.937 331.027 345.377 334.494C342.491 340.91 343.23 348.295 343.918 355.295C345.94 375.949 346.864 396.896 346.926 417.682C346.937 421.128 347.982 424.491 349.931 427.336C355.986 436.155 366.348 446.229 368.21 446.733C369.631 447.115 381.344 446.25 388.972 443.617C392.849 442.28 396.114 439.608 398.191 436.076C407.049 420.996 431.463 379.402 434.196 374.296C436.621 369.769 440.522 365.045 439.383 359.81C438.431 355.42 436.329 351.446 438.254 346.958C439.313 344.488 441.029 342.338 443.242 340.806C443.339 340.736 443.603 340.615 443.961 340.458C443.193 341.299 442.46 342.226 441.835 343.331C438.476 349.236 444.135 356.566 443.627 362.839C443.541 363.916 443.318 364.969 442.992 366.004C442.637 367.109 442.162 368.189 441.568 369.234C441.067 370.117 440.352 371.461 439.487 373.132C430.139 391.143 401.339 450.425 391.65 453.548V453.541Z" fill="#A1A8C3"/>
<path d="M217.913 471.743C219.452 470.677 224.117 467.859 224.117 467.859C224.117 467.859 211.098 480.872 202.723 484.773C201.055 485.548 197.668 486.93 197.668 486.93C197.668 486.93 211.025 476.516 217.917 471.743H217.913Z" fill="#C6CAD6"/>
<path d="M65.7941 389.597C69.0211 391.615 72.3941 393.397 75.8817 394.922C78.9281 396.253 83.364 396.836 86.0423 398.695C87.0427 399.389 87.5117 400.168 87.6367 400.974C85.8165 402.606 83.7566 403.968 81.5334 404.982C80.0084 405.677 78.1605 406.413 76.3541 406.705C75.114 406.907 73.8912 406.903 72.8109 406.507C69.8201 405.409 65.9261 402.954 63.6265 400.751C61.0663 398.302 59.1419 395.162 57.874 391.869C56.8701 389.253 56.811 386.401 57.6551 383.727C60.2361 385.856 62.956 387.822 65.7941 389.597Z" fill="#C6CAD6"/>
<path d="M94.9044 401.633C96.3425 402.199 97.5513 403.238 98.6595 404.328C101.279 406.909 103.554 409.831 106.253 412.342C108.886 414.788 111.964 415.934 114.854 417.924C114.927 417.977 114.979 418.029 115.045 418.081C114.173 418.842 113.225 419.54 112.297 420.172C109.949 421.777 107.309 423.458 104.488 423.079C101.946 422.732 99.9551 420.797 98.1627 418.96C96.4641 417.216 94.7446 415.455 93.4767 413.381C91.0381 409.404 92.3859 405.305 94.9078 401.633H94.9044Z" fill="#C6CAD6"/>
<path d="M242.997 111.859C244.431 110.737 246.317 110.512 248.075 110.362C248.94 110.289 249.808 110.244 250.673 110.182C250.548 108.754 250.423 107.33 250.291 105.902C249.871 101.306 249.447 96.7105 249.211 92.0939C248.85 84.5873 249.023 76.9868 250.559 69.5704C252.115 62.1958 255.248 55.0191 260.16 49.2111C262.554 46.2723 265.287 43.6253 268.174 41.1868C271.064 38.7482 274.1 36.4834 277.279 34.4443C283.635 30.3627 290.388 26.9585 297.263 23.8912C304.158 20.8726 311.165 18.0832 318.352 15.8218C325.528 13.5361 332.847 11.7089 340.253 10.375C340.594 10.316 340.934 10.2708 341.278 10.2152C338.676 5.89742 335.998 2.78498 333.306 1.30866C341.448 0.568757 350.73 2.04856 356.021 3.1393C371.975 6.4289 386.933 14.6234 398.316 26.2742C405.01 33.1243 410.457 41.027 414.723 49.5619C412.955 51.007 411.11 52.2783 409.193 53.3587C407.351 54.3973 405.448 55.2692 403.499 55.9952C401.238 49.1798 397.931 42.7222 393.481 36.9975C381.677 21.8139 362.728 13.2061 344.099 15.3945C343.262 13.7063 342.417 12.1327 341.563 10.6877C341.16 10.7641 340.757 10.8266 340.358 10.9065C332.99 12.3168 325.705 14.1857 318.581 16.5235C311.446 18.837 304.488 21.6715 297.645 24.7353C290.826 27.8408 284.146 31.2833 277.883 35.3753C271.613 39.4187 265.662 44.0839 260.869 49.8051C256.006 55.4603 252.879 62.4563 251.278 69.7302C249.697 77.0424 249.468 84.5873 249.753 92.0801C249.874 96.6827 250.187 101.282 250.496 105.881C250.594 107.312 250.684 108.747 250.774 110.178C251.587 110.119 252.4 110.043 253.213 110.008C256.648 109.858 260.115 109.935 263.516 110.491C266.705 111.012 269.834 111.974 272.683 113.52C272.843 113.607 273.023 113.721 273.041 113.898C273.055 114.03 272.968 114.138 272.86 114.232C272.787 114.294 272.707 114.357 272.624 114.406C269.24 116.379 265.704 118.084 262.085 119.574C258.448 121.072 254.727 122.353 250.972 123.517C249.888 123.851 248.805 124.177 247.721 124.493C246.668 124.799 245.543 125.264 244.449 125.334C244.174 125.351 243.768 125.362 243.549 125.16C243.191 124.83 243.146 124.271 243.222 123.819C243.337 123.138 243.434 122.447 243.497 121.752C243.511 121.586 243.518 121.415 243.528 121.249C243.657 119.554 243.629 117.813 243.219 116.149C243.108 115.694 242.965 115.243 242.799 114.805C242.649 114.423 242.41 114.058 242.323 113.659C242.166 112.96 242.444 112.3 243 111.863L242.997 111.859Z" fill="#A064DA"/>
<path d="M248.363 121.188C248.276 121.66 248.033 122.23 247.557 122.216C247.109 122.206 246.879 121.685 246.768 121.254C246.233 119.107 246.091 116.867 246.344 114.671C246.393 114.233 246.532 113.4 247.029 113.247C247.887 112.976 248.008 114.306 248.127 114.817C248.599 116.894 248.741 119.065 248.366 121.174V121.191L248.363 121.188Z" fill="#097CC0"/>
</g>
<defs>
<clipPath id="clip0_169_223">
<rect width="463.5" height="629.8" fill="white" transform="matrix(-1 0 0 1 464 0)"/>
</clipPath>
</defs>
</svg>
