<svg width="601" height="328" viewBox="0 0 601 328" fill="none" xmlns="http://www.w3.org/2000/svg">
<g opacity="0.4">
<g clip-path="url(#clip0_169_351)">
<g clip-path="url(#clip1_169_351)">
<path d="M208.447 122.108C208.447 121.396 209.023 120.82 209.733 120.82C210.443 120.82 211.019 121.396 211.019 122.108C211.019 122.819 210.443 123.396 209.733 123.396C209.023 123.396 208.447 122.819 208.447 122.108Z" fill="white" fill-opacity="0.2"/>
<path d="M111.203 86.6862C111.203 85.9744 111.778 85.3984 112.489 85.3984C113.199 85.3984 113.774 85.9744 113.774 86.6862C113.774 87.3972 113.199 87.9739 112.489 87.9739C111.778 87.9739 111.203 87.3972 111.203 86.6862Z" fill="white" fill-opacity="0.2"/>
<path d="M332.209 58.8581C332.209 58.1471 332.785 57.5703 333.494 57.5703C334.205 57.5703 334.781 58.1471 334.781 58.8581C334.781 59.5691 334.205 60.1458 333.494 60.1458C332.785 60.1458 332.209 59.5691 332.209 58.8581Z" fill="white" fill-opacity="0.2"/>
<path d="M175.611 29.7643C175.611 29.0533 176.187 28.4766 176.898 28.4766C177.607 28.4766 178.183 29.0533 178.183 29.7643C178.183 30.4761 177.607 31.0528 176.898 31.0528C176.187 31.0528 175.611 30.4761 175.611 29.7643Z" fill="white" fill-opacity="0.2"/>
<path d="M164.246 214.452C164.246 213.741 164.822 213.164 165.532 213.164C166.242 213.164 166.818 213.741 166.818 214.452C166.818 215.163 166.242 215.74 165.532 215.74C164.822 215.74 164.246 215.163 164.246 214.452Z" fill="white" fill-opacity="0.2"/>
<path d="M89.7344 111.991C89.7344 111.279 90.3096 110.703 91.0199 110.703C91.7301 110.703 92.3054 111.279 92.3054 111.991C92.3054 112.702 91.7301 113.279 91.0199 113.279C90.3096 113.279 89.7344 112.702 89.7344 111.991Z" fill="white" fill-opacity="0.2"/>
<path d="M279.168 76.569C279.168 75.8572 279.743 75.2812 280.453 75.2812C281.164 75.2812 281.739 75.8572 281.739 76.569C281.739 77.28 281.164 77.8567 280.453 77.8567C279.743 77.8567 279.168 77.28 279.168 76.569Z" fill="white" fill-opacity="0.2"/>
<path d="M319.58 225.835C319.58 225.124 320.156 224.547 320.866 224.547C321.576 224.547 322.152 225.124 322.152 225.835C322.152 226.546 321.576 227.122 320.866 227.122C320.156 227.122 319.58 226.546 319.58 225.835Z" fill="white" fill-opacity="0.2"/>
<path d="M209.709 191.679C209.709 190.967 210.285 190.391 210.995 190.391C211.705 190.391 212.281 190.967 212.281 191.679C212.281 192.39 211.705 192.967 210.995 192.967C210.285 192.967 209.709 192.39 209.709 191.679Z" fill="white" fill-opacity="0.2"/>
<path d="M251.385 17.1159C251.385 16.4049 251.961 15.8281 252.67 15.8281C253.381 15.8281 253.957 16.4049 253.957 17.1159C253.957 17.8269 253.381 18.4036 252.67 18.4036C251.961 18.4036 251.385 17.8269 251.385 17.1159Z" fill="white" fill-opacity="0.2"/>
<path d="M485.02 28.4987C485.02 27.7877 485.596 27.2109 486.306 27.2109C487.015 27.2109 487.591 27.7877 487.591 28.4987C487.591 29.2104 487.015 29.7864 486.306 29.7864C485.596 29.7864 485.02 29.2104 485.02 28.4987Z" fill="white" fill-opacity="0.2"/>
<path d="M394.092 123.374C394.092 122.663 394.667 122.086 395.377 122.086C396.088 122.086 396.663 122.663 396.663 123.374C396.663 124.085 396.088 124.661 395.377 124.661C394.667 124.661 394.092 124.085 394.092 123.374Z" fill="white" fill-opacity="0.2"/>
<path d="M234.967 170.178C234.967 169.467 235.543 168.891 236.252 168.891C236.963 168.891 237.539 169.467 237.539 170.178C237.539 170.89 236.963 171.466 236.252 171.466C235.543 171.466 234.967 170.89 234.967 170.178Z" fill="white" fill-opacity="0.2"/>
<path d="M5.12109 37.3581C5.12109 36.6471 5.69709 36.0703 6.40734 36.0703C7.11684 36.0703 7.69284 36.6471 7.69284 37.3581C7.69284 38.0691 7.11684 38.6458 6.40734 38.6458C5.69709 38.6458 5.12109 38.0691 5.12109 37.3581Z" fill="white" fill-opacity="0.2"/>
<path d="M97.3125 15.8503C97.3125 15.1385 97.8885 14.5625 98.5987 14.5625C99.309 14.5625 99.8843 15.1385 99.8843 15.8503C99.8843 16.5613 99.309 17.138 98.5987 17.138C97.8885 17.138 97.3125 16.5613 97.3125 15.8503Z" fill="white" fill-opacity="0.2"/>
<path d="M405.457 36.0924C405.457 35.3807 406.032 34.8047 406.743 34.8047C407.453 34.8047 408.028 35.3807 408.028 36.0924C408.028 36.8034 407.453 37.3802 406.743 37.3802C406.032 37.3802 405.457 36.8034 405.457 36.0924Z" fill="white" fill-opacity="0.2"/>
<path d="M353.678 14.5846C353.678 13.8736 354.254 13.2969 354.963 13.2969C355.673 13.2969 356.249 13.8736 356.249 14.5846C356.249 15.2964 355.673 15.8724 354.963 15.8724C354.254 15.8724 353.678 15.2964 353.678 14.5846Z" fill="white" fill-opacity="0.2"/>
<path d="M260.225 144.874C260.225 144.163 260.8 143.586 261.51 143.586C262.22 143.586 262.796 144.163 262.796 144.874C262.796 145.585 262.22 146.161 261.51 146.161C260.8 146.161 260.225 145.585 260.225 144.874Z" fill="white" fill-opacity="0.2"/>
<path d="M176.873 67.7174C176.873 67.0064 177.448 66.4297 178.159 66.4297C178.869 66.4297 179.444 67.0064 179.444 67.7174C179.444 68.4284 178.869 69.0052 178.159 69.0052C177.448 69.0052 176.873 68.4284 176.873 67.7174Z" fill="white" fill-opacity="0.2"/>
<path d="M210.973 13.319C210.973 12.608 211.548 12.0312 212.258 12.0312C212.968 12.0312 213.544 12.608 213.544 13.319C213.544 14.03 212.968 14.6068 212.258 14.6068C211.548 14.6068 210.973 14.03 210.973 13.319Z" fill="white" fill-opacity="0.2"/>
<path d="M343.574 105.663C343.574 104.952 344.15 104.375 344.86 104.375C345.57 104.375 346.146 104.952 346.146 105.663C346.146 106.374 345.57 106.951 344.86 106.951C344.15 106.951 343.574 106.374 343.574 105.663Z" fill="white" fill-opacity="0.2"/>
<path d="M299.375 224.569C299.375 223.858 299.95 223.281 300.66 223.281C301.371 223.281 301.946 223.858 301.946 224.569C301.946 225.28 301.371 225.857 300.66 225.857C299.95 225.857 299.375 225.28 299.375 224.569Z" fill="white" fill-opacity="0.2"/>
<path d="M120.865 116.804C120.865 116.33 121.249 115.945 121.722 115.945C122.196 115.945 122.58 116.33 122.58 116.804C122.58 117.278 122.196 117.662 121.722 117.662C121.249 117.662 120.865 117.278 120.865 116.804Z" fill="white"/>
<path d="M22.6211 81.0228C22.6211 80.5488 23.0051 80.1641 23.4783 80.1641C23.9516 80.1641 24.3356 80.5488 24.3356 81.0228C24.3356 81.4968 23.9516 81.8808 23.4783 81.8808C23.0051 81.8808 22.6211 81.4968 22.6211 81.0228Z" fill="white"/>
<path d="M245.898 52.9056C245.898 52.4316 246.282 52.0469 246.756 52.0469C247.229 52.0469 247.613 52.4316 247.613 52.9056C247.613 53.3796 247.229 53.7636 246.756 53.7636C246.282 53.7636 245.898 53.3796 245.898 52.9056Z" fill="white"/>
<path d="M87.6914 23.5072C87.6914 23.0332 88.0754 22.6484 88.5487 22.6484C89.0219 22.6484 89.4059 23.0332 89.4059 23.5072C89.4059 23.9812 89.0219 24.3652 88.5487 24.3652C88.0754 24.3652 87.6914 23.9812 87.6914 23.5072Z" fill="white"/>
<path d="M76.207 210.093C76.207 209.619 76.591 209.234 77.0643 209.234C77.5375 209.234 77.9215 209.619 77.9215 210.093C77.9215 210.567 77.5375 210.951 77.0643 210.951C76.591 210.951 76.207 210.567 76.207 210.093Z" fill="white"/>
<path d="M0.931641 106.577C0.931641 106.103 1.31564 105.719 1.78889 105.719C2.26214 105.719 2.64614 106.103 2.64614 106.577C2.64614 107.051 2.26214 107.436 1.78889 107.436C1.31564 107.436 0.931641 107.051 0.931641 106.577Z" fill="white"/>
<path d="M192.312 70.7962C192.312 70.3222 192.697 69.9375 193.17 69.9375C193.643 69.9375 194.027 70.3222 194.027 70.7962C194.027 71.2702 193.643 71.6543 193.17 71.6543C192.697 71.6543 192.312 71.2702 192.312 70.7962Z" fill="white"/>
<path d="M233.141 221.593C233.141 221.119 233.525 220.734 233.998 220.734C234.471 220.734 234.855 221.119 234.855 221.593C234.855 222.067 234.471 222.451 233.998 222.451C233.525 222.451 233.141 222.067 233.141 221.593Z" fill="white"/>
<path d="M122.139 187.093C122.139 186.619 122.523 186.234 122.996 186.234C123.469 186.234 123.853 186.619 123.853 187.093C123.853 187.567 123.469 187.951 122.996 187.951C122.523 187.951 122.139 187.567 122.139 187.093Z" fill="white"/>
<path d="M164.244 10.7337C164.244 10.2597 164.628 9.875 165.101 9.875C165.575 9.875 165.959 10.2597 165.959 10.7337C165.959 11.2077 165.575 11.5918 165.101 11.5918C164.628 11.5918 164.244 11.2077 164.244 10.7337Z" fill="white"/>
<path d="M489.643 15.9603C489.643 15.4863 490.027 15.1016 490.5 15.1016C490.973 15.1016 491.357 15.4863 491.357 15.9603C491.357 16.4343 490.973 16.8183 490.5 16.8183C490.027 16.8183 489.643 16.4343 489.643 15.9603Z" fill="white"/>
<path d="M397.779 111.812C397.779 111.338 398.163 110.953 398.637 110.953C399.11 110.953 399.494 111.338 399.494 111.812C399.494 112.286 399.11 112.67 398.637 112.67C398.163 112.67 397.779 112.286 397.779 111.812Z" fill="white"/>
<path d="M237.021 159.093C237.021 158.619 237.405 158.234 237.879 158.234C238.352 158.234 238.736 158.619 238.736 159.093C238.736 159.567 238.352 159.951 237.879 159.951C237.405 159.951 237.021 159.567 237.021 159.093Z" fill="white"/>
<path d="M4.81055 24.9056C4.81055 24.4316 5.19455 24.0469 5.6678 24.0469C6.14105 24.0469 6.52505 24.4316 6.52505 24.9056C6.52505 25.3796 6.14105 25.7636 5.6678 25.7636C5.19455 25.7636 4.81055 25.3796 4.81055 24.9056Z" fill="white"/>
<path d="M97.9492 3.17906C97.9492 2.70506 98.3332 2.32031 98.8065 2.32031C99.2797 2.32031 99.6637 2.70506 99.6637 3.17906C99.6637 3.65306 99.2797 4.03706 98.8065 4.03706C98.3332 4.03706 97.9492 3.65306 97.9492 3.17906Z" fill="white"/>
<path d="M409.262 23.6244C409.262 23.1504 409.646 22.7656 410.119 22.7656C410.592 22.7656 410.976 23.1504 410.976 23.6244C410.976 24.0984 410.592 24.4824 410.119 24.4824C409.646 24.4824 409.262 24.0984 409.262 23.6244Z" fill="white"/>
<path d="M356.951 1.90562C356.951 1.43162 357.335 1.04688 357.808 1.04688C358.282 1.04688 358.666 1.43162 358.666 1.90562C358.666 2.37962 358.282 2.76363 357.808 2.76363C357.335 2.76363 356.951 2.37962 356.951 1.90562Z" fill="white"/>
<path d="M262.537 133.531C262.537 133.057 262.921 132.672 263.394 132.672C263.868 132.672 264.252 133.057 264.252 133.531C264.252 134.005 263.868 134.389 263.394 134.389C262.921 134.389 262.537 134.005 262.537 133.531Z" fill="white"/>
<path d="M178.328 55.5775C178.328 55.1035 178.712 54.7188 179.185 54.7188C179.659 54.7188 180.043 55.1035 180.043 55.5775C180.043 56.0515 179.659 56.4355 179.185 56.4355C178.712 56.4355 178.328 56.0515 178.328 55.5775Z" fill="white"/>
<path d="M212.777 0.624375C212.777 0.150375 213.161 -0.234375 213.635 -0.234375C214.108 -0.234375 214.492 0.150375 214.492 0.624375C214.492 1.09837 214.108 1.48238 213.635 1.48238C213.161 1.48238 212.777 1.09837 212.777 0.624375Z" fill="white"/>
<path d="M346.744 93.9134C346.744 93.4394 347.128 93.0547 347.601 93.0547C348.075 93.0547 348.459 93.4394 348.459 93.9134C348.459 94.3874 348.075 94.7714 347.601 94.7714C347.128 94.7714 346.744 94.3874 346.744 93.9134Z" fill="white"/>
<path d="M302.09 214.046C302.09 213.572 302.474 213.188 302.947 213.188C303.42 213.188 303.804 213.572 303.804 214.046C303.804 214.52 303.42 214.904 302.947 214.904C302.474 214.904 302.09 214.52 302.09 214.046Z" fill="white"/>
<path d="M213.098 221.273C213.098 220.799 213.482 220.414 213.955 220.414C214.428 220.414 214.812 220.799 214.812 221.273C214.812 221.747 214.428 222.131 213.955 222.131C213.482 222.131 213.098 221.747 213.098 221.273Z" fill="white" fill-opacity="0.4"/>
<path d="M115.855 185.851C115.855 185.377 116.239 184.992 116.713 184.992C117.186 184.992 117.57 185.377 117.57 185.851C117.57 186.325 117.186 186.709 116.713 186.709C116.239 186.709 115.855 186.325 115.855 185.851Z" fill="white" fill-opacity="0.4"/>
<path d="M336.859 158.023C336.859 157.549 337.243 157.164 337.717 157.164C338.19 157.164 338.574 157.549 338.574 158.023C338.574 158.497 338.19 158.881 337.717 158.881C337.243 158.881 336.859 158.497 336.859 158.023Z" fill="white" fill-opacity="0.4"/>
<path d="M180.262 128.929C180.262 128.455 180.646 128.07 181.119 128.07C181.592 128.07 181.976 128.455 181.976 128.929C181.976 129.403 181.592 129.787 181.119 129.787C180.646 129.787 180.262 129.403 180.262 128.929Z" fill="white" fill-opacity="0.4"/>
<path d="M168.896 313.617C168.896 313.143 169.28 312.758 169.754 312.758C170.227 312.758 170.611 313.143 170.611 313.617C170.611 314.091 170.227 314.475 169.754 314.475C169.28 314.475 168.896 314.091 168.896 313.617Z" fill="white" fill-opacity="0.4"/>
<path d="M94.3848 211.148C94.3848 210.674 94.7688 210.289 95.242 210.289C95.7153 210.289 96.0993 210.674 96.0993 211.148C96.0993 211.622 95.7153 212.006 95.242 212.006C94.7688 212.006 94.3848 211.622 94.3848 211.148Z" fill="white" fill-opacity="0.4"/>
<path d="M283.82 175.734C283.82 175.26 284.204 174.875 284.678 174.875C285.151 174.875 285.535 175.26 285.535 175.734C285.535 176.208 285.151 176.592 284.678 176.592C284.204 176.592 283.82 176.208 283.82 175.734Z" fill="white" fill-opacity="0.4"/>
<path d="M324.232 324.999C324.232 324.525 324.616 324.141 325.09 324.141C325.563 324.141 325.947 324.525 325.947 324.999C325.947 325.473 325.563 325.857 325.09 325.857C324.616 325.857 324.232 325.473 324.232 324.999Z" fill="white" fill-opacity="0.4"/>
<path d="M214.359 290.843C214.359 290.369 214.743 289.984 215.217 289.984C215.69 289.984 216.074 290.369 216.074 290.843C216.074 291.317 215.69 291.701 215.217 291.701C214.743 291.701 214.359 291.317 214.359 290.843Z" fill="white" fill-opacity="0.4"/>
<path d="M256.035 116.281C256.035 115.807 256.419 115.422 256.892 115.422C257.366 115.422 257.75 115.807 257.75 116.281C257.75 116.755 257.366 117.139 256.892 117.139C256.419 117.139 256.035 116.755 256.035 116.281Z" fill="white" fill-opacity="0.4"/>
<path d="M489.67 127.663C489.67 127.189 490.054 126.805 490.527 126.805C491 126.805 491.384 127.189 491.384 127.663C491.384 128.137 491 128.521 490.527 128.521C490.054 128.521 489.67 128.137 489.67 127.663Z" fill="white" fill-opacity="0.4"/>
<path d="M398.742 222.538C398.742 222.064 399.126 221.68 399.599 221.68C400.073 221.68 400.457 222.064 400.457 222.538C400.457 223.012 400.073 223.396 399.599 223.396C399.126 223.396 398.742 223.012 398.742 222.538Z" fill="white" fill-opacity="0.4"/>
<path d="M239.617 269.343C239.617 268.869 240.001 268.484 240.474 268.484C240.948 268.484 241.332 268.869 241.332 269.343C241.332 269.817 240.948 270.201 240.474 270.201C240.001 270.201 239.617 269.817 239.617 269.343Z" fill="white" fill-opacity="0.4"/>
<path d="M9.77148 136.515C9.77148 136.041 10.1555 135.656 10.6287 135.656C11.102 135.656 11.486 136.041 11.486 136.515C11.486 136.989 11.102 137.373 10.6287 137.373C10.1555 137.373 9.77148 136.989 9.77148 136.515Z" fill="white" fill-opacity="0.4"/>
<path d="M101.963 115.015C101.963 114.541 102.347 114.156 102.82 114.156C103.293 114.156 103.677 114.541 103.677 115.015C103.677 115.489 103.293 115.873 102.82 115.873C102.347 115.873 101.963 115.489 101.963 115.015Z" fill="white" fill-opacity="0.4"/>
<path d="M0.931641 227.593C0.931641 227.119 1.31564 226.734 1.78889 226.734C2.26214 226.734 2.64614 227.119 2.64614 227.593C2.64614 228.067 2.26214 228.451 1.78889 228.451C1.31564 228.451 0.931641 228.067 0.931641 227.593Z" fill="white" fill-opacity="0.4"/>
<path d="M410.107 135.249C410.107 134.775 410.491 134.391 410.964 134.391C411.437 134.391 411.821 134.775 411.821 135.249C411.821 135.723 410.58 135.249 410.107 135.249C410.107 135.723 409.634 135.249 410.107 135.249Z" fill="white" fill-opacity="0.4"/>
<path d="M358.328 113.749C358.328 113.275 358.712 112.891 359.185 112.891C359.659 112.891 360.043 113.275 360.043 113.749C360.043 114.223 359.659 114.607 359.185 114.607C358.712 114.607 358.328 114.223 358.328 113.749Z" fill="white" fill-opacity="0.4"/>
<path d="M264.875 244.038C264.875 243.564 265.259 243.18 265.732 243.18C266.206 243.18 266.589 243.564 266.589 244.038C266.589 244.512 266.206 244.896 265.732 244.896C265.259 244.896 264.875 244.512 264.875 244.038Z" fill="white" fill-opacity="0.4"/>
<path d="M181.523 166.874C181.523 166.4 181.907 166.016 182.381 166.016C182.854 166.016 183.238 166.4 183.238 166.874C183.238 167.348 182.854 167.732 182.381 167.732C181.907 167.732 181.523 167.348 181.523 166.874Z" fill="white" fill-opacity="0.4"/>
<path d="M215.623 112.484C215.623 112.01 216.007 111.625 216.48 111.625C216.954 111.625 217.338 112.01 217.338 112.484C217.338 112.958 216.954 113.342 216.48 113.342C216.007 113.342 215.623 112.958 215.623 112.484Z" fill="white" fill-opacity="0.4"/>
<path d="M348.227 204.827C348.227 204.353 348.611 203.969 349.084 203.969C349.557 203.969 349.941 204.353 349.941 204.827C349.941 205.301 349.557 205.686 349.084 205.686C348.611 205.686 348.227 205.301 348.227 204.827Z" fill="white" fill-opacity="0.4"/>
<path d="M304.025 323.734C304.025 323.26 304.409 322.875 304.883 322.875C305.356 322.875 305.74 323.26 305.74 323.734C305.74 324.208 305.356 324.592 304.883 324.592C304.409 324.592 304.025 324.208 304.025 323.734Z" fill="white" fill-opacity="0.4"/>
<path d="M549.098 125.116C549.098 124.642 549.482 124.258 549.955 124.258C550.428 124.258 550.812 124.642 550.812 125.116C550.812 125.591 550.428 125.975 549.955 125.975C549.482 125.975 549.098 125.591 549.098 125.116Z" fill="white" fill-opacity="0.7"/>
<path d="M451.855 89.6939C451.855 89.2199 452.239 88.8359 452.713 88.8359C453.186 88.8359 453.57 89.2199 453.57 89.6939C453.57 90.1687 453.186 90.5527 452.713 90.5527C452.239 90.5527 451.855 90.1687 451.855 89.6939Z" fill="white" fill-opacity="0.7"/>
<path d="M516.262 32.7728C516.262 32.2988 516.646 31.9141 517.119 31.9141C517.592 31.9141 517.976 32.2988 517.976 32.7728C517.976 33.2468 517.592 33.6316 517.119 33.6316C516.646 33.6316 516.262 33.2468 516.262 32.7728Z" fill="white" fill-opacity="0.7"/>
<path d="M504.896 217.452C504.896 216.978 505.28 216.594 505.754 216.594C506.227 216.594 506.611 216.978 506.611 217.452C506.611 217.926 506.227 218.311 505.754 218.311C505.28 218.311 504.896 217.926 504.896 217.452Z" fill="white" fill-opacity="0.7"/>
<path d="M430.385 114.991C430.385 114.517 430.768 114.133 431.241 114.133C431.715 114.133 432.098 114.517 432.098 114.991C432.098 115.465 431.715 115.85 431.241 115.85C430.768 115.85 430.385 115.465 430.385 114.991Z" fill="white" fill-opacity="0.7"/>
<path d="M550.359 194.687C550.359 194.213 550.743 193.828 551.217 193.828C551.69 193.828 552.074 194.213 552.074 194.687C552.074 195.161 551.69 195.546 551.217 195.546C550.743 195.546 550.359 195.161 550.359 194.687Z" fill="white" fill-opacity="0.7"/>
<path d="M592.035 20.1236C592.035 19.6496 592.419 19.2656 592.892 19.2656C593.366 19.2656 593.75 19.6496 593.75 20.1236C593.75 20.5984 593.366 20.9824 592.892 20.9824C592.419 20.9824 592.035 20.5984 592.035 20.1236Z" fill="white" fill-opacity="0.7"/>
<path d="M575.619 173.179C575.619 172.705 576.003 172.32 576.476 172.32C576.95 172.32 577.334 172.705 577.334 173.179C577.334 173.653 576.95 174.038 576.476 174.038C576.003 174.038 575.619 173.653 575.619 173.179Z" fill="white" fill-opacity="0.7"/>
<path d="M345.771 40.358C345.771 39.884 346.155 39.5 346.629 39.5C347.102 39.5 347.486 39.884 347.486 40.358C347.486 40.8328 347.102 41.2168 346.629 41.2168C346.155 41.2168 345.771 40.8328 345.771 40.358Z" fill="white" fill-opacity="0.7"/>
<path d="M437.963 18.8587C437.963 18.3847 438.347 18 438.82 18C439.294 18 439.677 18.3847 439.677 18.8587C439.677 19.3327 439.294 19.7175 438.82 19.7175C438.347 19.7175 437.963 19.3327 437.963 18.8587Z" fill="white" fill-opacity="0.7"/>
<path d="M336.932 131.437C336.932 130.962 337.316 130.578 337.789 130.578C338.262 130.578 338.646 130.962 338.646 131.437C338.646 131.911 338.262 132.295 337.789 132.295C337.316 132.295 336.932 131.911 336.932 131.437Z" fill="white" fill-opacity="0.7"/>
<path d="M600.875 147.882C600.875 147.408 601.259 147.023 601.732 147.023C602.206 147.023 602.59 147.408 602.59 147.882C602.59 148.356 602.206 148.741 601.732 148.741C601.259 148.741 600.875 148.356 600.875 147.882Z" fill="white" fill-opacity="0.7"/>
<path d="M517.523 70.7174C517.523 70.2434 517.907 69.8594 518.381 69.8594C518.854 69.8594 519.237 70.2434 519.237 70.7174C519.237 71.1921 518.854 71.5761 518.381 71.5761C517.907 71.5761 517.523 71.1921 517.523 70.7174Z" fill="white" fill-opacity="0.7"/>
<path d="M551.623 16.3275C551.623 15.8528 552.006 15.4688 552.48 15.4688C552.954 15.4688 553.337 15.8528 553.337 16.3275C553.337 16.8015 552.954 17.1855 552.48 17.1855C552.006 17.1855 551.623 16.8015 551.623 16.3275Z" fill="white" fill-opacity="0.7"/>
</g>
</g>
</g>
<defs>
<clipPath id="clip0_169_351">
<rect width="600" height="326.25" fill="white" transform="translate(0.931641 0.875)"/>
</clipPath>
<clipPath id="clip1_169_351">
<rect width="600" height="326.25" fill="white" transform="translate(0.931641 0.875)"/>
</clipPath>
</defs>
</svg>
